<?xml version="1.0" encoding="UTF-8"?>
<svg id="Isolation_Mode" data-name="Isolation Mode" xmlns="http://www.w3.org/2000/svg" viewBox="0 0 419.02 336.79">
  <defs>
    <style>
      .cls-1 {
        fill: #bb9a86;
      }
    </style>
  </defs>
  <path class="cls-1" d="M0,207.5c.49-.71.99-1.42,1.45-2.08,1.42.62,2.55,1.32,1.98,2.82-.41,1.07-1.48,1.41-2.6,1.25-.29-.6-.56-1.15-.83-1.69,0-.1,0-.2,0-.29Z"/>
  <path class="cls-1" d="M147.66,106.51c-.87-.93-1.62-1.75-2.66-2.86,0,.79.04,1.2,0,1.59-.12.92-.25,1.79-1.42,2.09-.56.15-1.08.65-1.49,1.11-1.05,1.17-2,1.29-3.35.31-2.1-1.52-2.77-2.96-1.94-5.31.17-.49.44-1.13.84-1.31,2.11-.97,1.2-3.31,2.21-4.77.13-.19-.63-.99-1.14-1.74,1.12.3,2.03.59,2.97.77.29.06.77-.08.94-.3.8-1,1.66-1.45,2.9-.72.21.12.72.05.88-.12.68-.75,1.32-1.55,1.87-2.39.13-.2-.12-.65-.19-.96,1.73-.21,3.21.37,6.29,2.55-.09.67-.28,1.21-.2,1.7.55,3.36.08,6.64-1.81,9.39-.94,1.37-2.91,2.04-4.47,2.94-.24.14-1.03-.14-1.09-.35-.1-.36.13-.86.34-1.24.12-.22.45-.32.53-.37ZM144.47,102.89c.1-.11.2-.21.31-.32-.86-.96-1.73-1.91-2.84-3.14-.27.99-.4,1.48-.52,1.9,1.08.55,2.06,1.05,3.05,1.56Z"/>
  <path class="cls-1" d="M124.15,243.54c-.26.07-.53.18-.8.2-.3.03-.61-.02-.91-.03.06-.29.13-.57.17-.86.06-.35.18-.72.13-1.06-.09-.62-.36-1.21-.42-1.83-.17-1.59-.14-1.59-1.87-2.2,1.04-.41,1.84-.72,2.78-1.09.84,1.16,2.57,2.07,1.8,4.38,1.84-2.15,3.74-1.03,5.28-.22,1.37.72,2.68,1.98,3.4,3.34.44.83-.2,2.3-.51,3.45-.37,1.39-.72,2.74-2.42,3.32-2.13.73-4.19.72-6.23-.05-1.75-.66-1.96-2.91-.42-4.89.68-.87.82-1.56.03-2.45Z"/>
  <path class="cls-1" d="M111.69,150.34c-1.73.54-3.14.97-4.49,1.39-.53-1.19-.96-2.14-1.38-3.1-.54-1.24-.28-2.22.85-3.05.35-.26.47-.87.64-1.34.14-.4.04-.99.29-1.21.59-.52.83-1.96,2.11-1.11,1.76,1.17,2.11,2.59,1.28,3.9.26,1.08.42,1.96.69,2.8.13.39.4.86.75,1.04,1.07.55,2.2.99,3.3,1.47,1.59.69,1.98,2.7.97,4.07-.83,1.13-1.38,2.47-2.12,3.68-.33.54-.78,1.35-1.24,1.4-.6.06-1.47-.35-1.88-.84-2.07-2.48-2.02-5.2-.03-7.9.17-.23.14-.6.26-1.18Z"/>
  <path class="cls-1" d="M137.98,126.36c-.78.87-2.01,1.51-1.62,2.98.13.47.21.95.32,1.42.47-.15,1-.22,1.4-.48.22-.15.23-.62.34-.95.19.14.37.28.56.41.09.42.17.83.26,1.25l.46-.08c-.14-.57-.11-1.26-.44-1.67-.48-.59-.61-2.01-.06-2.52.69-.64,1.33-1.35,1.98-2.03l-.23-.41c-.39.17-.81.29-1.17.52-1.42.91-3.19.35-3.6-1.32-.2-.82-.17-1.78.06-2.6.46-1.63,1.96-2.03,3.82-.99-.55.41-1.02.76-1.66,1.24.18.58.42,1.33.65,2.07.21-.1.59-.2.6-.31.04-.91,2.07-1.22.51-2.58.18-.06.36-.11.54-.17.53.66,1.05,1.31,1.71,2.13.16-.04.57-.19.98-.24.87-.11,1.65,0,2,1,.09.27.22.56.43.75.74.67,1.03,1.5.5,2.32-.6.92-1.31,1.84-2.65,1.72-1.33-.11-2.64-.4-2.46,1.83.05.65-1.15,1.41-1.78,2.11-.13.14-.27.28-.41.41-2.15,1.85-3.67,1.7-5.46-.51-1.52-1.88-.57-4.74,1.77-5.28.82-.19,1.66-.27,2.49-.41.06.13.12.26.17.39Z"/>
  <path class="cls-1" d="M114.61,249.08c1.14-.59,2.05-.98,2.84-1.54.13-.09-.12-1.1-.45-1.39-.61-.55-1.42-.89-2.14-1.31.02-.2.04-.4.06-.6.75-.05,1.67-.4,2.22-.09.63.36,1.85.65,1.38,2.02-.31.9-.14,1.98-.5,2.84-.5,1.2.04,1.65,1.01,1.87.89.2,1.28.74,1.42,1.58.14.85.36,1.7.46,2.55.24,2.12-1.01,3.49-3.22,3.61-.99.05-2.02.5-2.87-.41-1.38-1.46-1.38-4.13.02-5.72.25-.28.47-.58.97-1.19-3.27.41-4.9-1.04-5.23-3.89-.11-.95,1.66-2.48,2.75-2.73.38,1.31.75,2.61,1.27,4.39ZM116.29,252.04c-.05.03-.57.16-.74.47-.15.29-.05.89.17,1.15.53.61,1.15,1.19,1.85,1.57.2.11,1.04-.4,1.16-.76.29-.88-1.06-2.4-2.44-2.43Z"/>
  <path class="cls-1" d="M138.05,269.63c-.2.8-.2,1.75-.65,2.37-.46.63-1.36.95-2.11,1.43-.11-1.63,1.33-3.58,2.61-4.16,2.46-1.12,4.57-.51,6.68.85.89.58,1.91.95,2.82,1.51,1.79,1.1,1.97,2.82.41,4.28-.94.88-2.06,1.42-3.64.91.41.63.7,1.08,1.17,1.78-.71-.09-1.15-.14-1.58-.19.09-.12.19-.25.28-.37-.4-.48-.71-1.2-1.22-1.41-4.09-1.68-3.69-1.79-4.13-6.35-.02-.22-.17-.43-.27-.64-.13,0-.26,0-.38-.01Z"/>
  <path class="cls-1" d="M103.25,225.21c-1.28-.36-2.39-1-3.92-.52-1.69.53-2.28,1.56-2.82,2.92-1.12.16-2.24.46-3.35.43-.51-.01-1.22-.56-1.45-1.05-.18-.4.06-1.21.39-1.59.8-.9,1.92-1.54,2.62-2.5.38-.53.18-1.48.24-2.24.12-1.77,1.21-2.78,2.94-2.92,2.89-.23,3.68,1.01,3.9,3.96.08,1.1.35,1.86,1.15,2.52.21.17.33.45.49.68-.06.11-.12.22-.18.32Z"/>
  <path class="cls-1" d="M131.55,266.46c-.56.93-.45,3.51.21,4.15.2.2.68.34.91.23.31-.14.76-.62.7-.82-.28-.96-.03-1.92-.42-2.98-.42-1.14-1.34-2.11-1.46-3.36-.16-1.69,1.41-2.93,3.64-2.75.63.05,1.56.37,1.78.84.58,1.25-.14,2.89-1.27,3.52-.48.27-.96.54-1.45.82,1.8,2.62,1.75,4.66-.12,7.09-.26.34-.79.6-1.22.65-2.55.26-5.31-2.77-4.6-5.21.42-1.44,1.83-1.93,3.29-2.19Z"/>
  <path class="cls-1" d="M148.88,139.3c.5.39.97.65,1.25,1.04.16.23.09.95,0,.98-.6.16-1.33.43-1.84.22-1.52-.63-2.89-1.77-4.45-2.13-2.03-.46-1.45-1.87-1.54-3.03-.2-2.46.2-3.15,2.07-3.94-.63-1.19.46-1.7,1.11-1.87,1.31-.34,2.72-.3,4.08-.42.08.19.15.39.23.58-.89.72-1.79,1.43-2.39,1.92.54,2.39,1.03,4.56,1.49,6.63Z"/>
  <path class="cls-1" d="M287.83,269.24c-.96,2.55-2.83,3.73-4.93,3.18-.93-.24-1.9-2.11-1.77-3.47.7.41,1.39.81,1.94,1.13.64-.38,1.15-.61,1.56-.96.32-.28.77-.8.68-1.06-.14-.41-.62-.79-1.05-.97-.46-.2-1.08-.03-1.52-.24-.51-.25-.9-.75-1.34-1.14.67-.44,1.05-1.53,2.16-1.01.86.4,1.73.79,2.56,1.26.83.48,1.43.35,2.22-.21.55-.39,1.48-.46,2.19-.35.88.13,1.08.86,1.02,1.78-.15,2.25-.91,2.72-3.73,2.06Z"/>
  <path class="cls-1" d="M107.67,163.82c.87.66,1.56,1.18,2.16,1.63-.62,2.66-1.59,4.84-4.18,5.66-.45-.86-.85-1.72-1.34-2.53-.19-.31-.54-.58-.88-.72-2.37-.95-2.62-2.07-.86-4.05-.13-.03-.26-.06-.39-.1.14-.77.04-1.75.49-2.27.5-.58,1.48-1.02,2.27-1.04,1.2-.04,1.45.74.98,1.87-.68,1.63.36,3.2.35,4.82,0,.18.51.51.77.49.23-.01.61-.39.63-.63.07-.94.03-1.89.03-3.14Z"/>
  <path class="cls-1" d="M93.48,245.88c.11,1.15.16,2.23.35,3.28.05.25.57.41.87.62.29-.46.58-.92,1-1.57.05.01.41.1,1.1.27-.83-.91-1.45-1.61-2.09-2.31,1.38-.63,3.2.41,2.93,1.78-.2,1.02.27,1.18.89,1.57,1.45.91,1.65,2.69.37,3.64-.63.47-1.43,1.02-2.15-.14-.23-.37-.97-.53-1.5-.58-2.75-.23-4.36-1.37-4.41-4.09-.03-1.51,1.31-2.61,2.63-2.48Z"/>
  <path class="cls-1" d="M89.47,293.51c.11-1.63,1.21-3.47-.91-4.91.03.5.04.87.07,1.35-.29.04-.59.08-1.16.15.5-1.2.19-2.45,1.98-2.7,2.79-.4,5.01.6,6.45,2.71.35.51.14,1.39.19,2.05-2.14.98-3.76,3.85-6.62,1.36Z"/>
  <path class="cls-1" d="M99,140.44c.6-2.01,1.15-3.85,1.67-5.59,1.5-.18,2.88-.23,4.2-.53,1.73-.4,2.49,1.05,3.67,1.67-.53,1.74-1.53,1.92-4.27.73-.16.42-.31.83-.47,1.24-.11,0-.21-.02-.32-.03.04-.59.09-1.18.12-1.57-1.02.95-2.14,1.91-3.13,2.98-.25.27-.3,1.14-.07,1.37,1.1,1.12.9,2.45.64,3.71-.09.45-.92.75-1.58,1.25-.18-1.42-.23-2.57-.5-3.67-.11-.45-.7-.79-1.17-1.28.44-.1.95-.22,1.21-.28Z"/>
  <path class="cls-1" d="M135.99,148.52c.89-.82,1.6-1.77,2.55-2.21.56-.25,1.86.09,2.19.58.67,1.01,1.57,2.27.37,3.54-.78.82-1.65,1.3-2.83.6-.86-.51-1.68-1.02-2.54.31-.3.47-1.74.59-2.44.32-1.22-.47-1.1-1.62-.7-2.72.37-1.01,1.22-1.02,2-.96.57.04,1.12.42,1.4.53Z"/>
  <path class="cls-1" d="M163.61,292.81c.99.7,1.86,1.39,2.81,1.95.28.16.79-.06,1.19-.1-.16-.36-.23-.84-.5-1.07-.73-.63-1.55-1.16-2.68-1.98.87-.33,1.62-.7,2.42-.88.99-.22,1.49.39,1.82,1.26.25.65.68,1.23.97,1.87.9,1.93.76,1.99-.88,3.37-1.38,1.16-2.79,1.04-4.14.39-2.07-1-2.31-2.46-1.02-4.81Z"/>
  <path class="cls-1" d="M139.18,218.15c.4-.06.85-.05,1.23-.2,1.24-.49,2.16-.08,2.38,1.22.1.63.13,1.31-.02,1.92-.12.48-.64,1.29-.86,1.25-.62-.12-1.42-.44-1.72-.94-.93-1.51-1.27-1.72-2.85-.78-1.34.8-2.05.07-2.7-.93-.87-1.34-.78-2.26.27-3.03,1.88-1.38,3.73-.77,4.26,1.49Z"/>
  <path class="cls-1" d="M84.95,153.83c-.51.85-1.07,1.68-1.48,2.57-.12.26.1.93.32,1.02.29.12.93-.02,1.09-.27.48-.73.8-1.57,1.24-2.49.29.21.71.5,1.21.86.56-.71.91-2,2.19-1.39.4.19.54.93.87,1.54-1.13.09-1.88.16-2.72.23.12,2.63-2.34,2.85-3.87,3.94-.26.19-.88.06-1.24-.12-1.93-.98-2.65-3.89-1.44-5.7.58-.87,2.47-.93,3.84-.19Z"/>
  <path class="cls-1" d="M246.35,272.91c.6-.24,1.25-.75,1.79-.66,1.31.22,2.57.76,3.87,1.09.52.13,1.1.07,1.65.09,1.18.03,2.37-.02,3.54.13.27.04.65.74.63,1.13-.02.34-.48.7-.8.98-.16.14-.46.19-.69.19-1.45,0-2.58.22-1.89,2.16.11.3-.37.81-.57,1.23-.4-.2-.9-.3-1.17-.62-.39-.46-.72-1.03-.87-1.61-.43-1.66-1.71-2.53-3.46-2.57-.67-.01-1.33-.65-1.99-1-.02-.18-.03-.37-.05-.55Z"/>
  <path class="cls-1" d="M30.74,165.61c-.33.59-.65,1.18-.96,1.74.04.53.02,1.11.15,1.66.08.38.31.92.58,1,.31.09.95-.13,1.11-.41.51-.91.88-1.89,1.26-2.87.04-.11-.22-.34-.35-.52,2.17.82,2.5,1.92,1.11,3.74-.66.86-1.37,1.69-2.13,2.46-.26.26-.75.44-1.12.41-2.67-.25-4.56-4.39-2.83-6.42.61-.71,1.86-.88,2.82-1.29.12.16.24.33.36.49Z"/>
  <path class="cls-1" d="M119.17,292.98c.79-.45,1.25-.85,1.78-.98.96-.25,1.94-.54,2.72.54.68.93,1.57,1.71,2.29,2.63.2.26.29.84.14,1.12-1.39,2.55-3.69,3.35-6.14,1.92-1.29-.76-.93-2.21-.86-3.22,1.12.36,2.19.77,3.3,1.02.28.07.82-.27.97-.57.1-.19-.2-.84-.44-.93-.89-.31-1.86-.43-2.76-.71-.34-.11-.59-.47-.98-.81Z"/>
  <path class="cls-1" d="M79.45,67.18c2.24-.36,3.37.74,2.86,2.56-.34,1.2-.77,2.37-1.23,3.53-.12.3-.48.62-.79.71-2.39.69-5.6-2.56-4.96-4.98.23-.88,1.94-1.92,3.04-1.86-.47,2.71-.21,3.6,1.34,4.26.27-.48.55-.98.86-1.53.23.14.46.29.77.48.05-.29.23-.65.12-.8-.59-.77-1.24-1.49-2-2.37Z"/>
  <path class="cls-1" d="M188.89,128.01c.19,1.52.27,2.63.48,3.71.21,1.06.94,1.21,1.77.52.42-.34.97-.52,1.68-.89-.37-.75-.9-1.83-1.5-3.04,3.05.48,2.87,2.33,1.75,4.34-.12.21-.29.39-.42.59-1.53,2.47-1.8,2.54-4.59,1.31-1.11-.49-2.31-3.41-1.6-4.61.5-.85,1.64-1.33,2.43-1.93Z"/>
  <path class="cls-1" d="M97,176.87c.18,1.05.33,1.88.47,2.71.13,0,.25,0,.38,0,.22-.52.43-1.04.65-1.56,1.06.73,1.47,1.91.95,2.72-.68,1.08-3.8,2.63-4.47,2.21-1.49-.93-2.13-3.25-1.33-4.81.84-1.63,1.89-1.94,3.35-1.27Z"/>
  <path class="cls-1" d="M272.04,276.81c.56.17,1.11.35,1.68.53.4-.27.86-.49,1.21-.84.29-.28.63-.72.6-1.06-.02-.27-.53-.63-.88-.72-.45-.12-.99.09-1.44-.04-.47-.14-.87-.51-1.29-.78.56-.44,1.2-1.34,1.65-1.25,1.35.28,2.66.87,3.91,1.5.37.18.67.86.7,1.32.1,1.66-1.37,3.52-2.99,3.98-.26.07-.56.14-.76.3-.65.51-.98.64-1.29-.39-.25-.84-.94-1.54-1.43-2.31.11-.08.22-.16.33-.24Z"/>
  <path class="cls-1" d="M93.77,165.84c.03,1.18-1.21,2.57-2.26,2.53-1.45-.05-3.34-2.1-3.38-3.67-.02-1.01,1.17-2.4,2.07-2.42,2.03-.05,3.51,1.43,3.57,3.57Z"/>
  <path class="cls-1" d="M55.57,28.92c-.46.97-.92,1.81-1.23,2.7-.08.24.21.77.47.92.24.14.85.06.99-.14.54-.77.95-1.62,1.4-2.43.89.53,1.76,1.34,1.06,2.57-.78,1.36-3.58,2.57-4.4,2.12-1.59-.87-2.49-3.05-1.85-4.48.66-1.46,1.83-1.85,3.56-1.26Z"/>
  <path class="cls-1" d="M111,94.55c.57-.99,1.14-1.98,1.77-3.06.99.28,1.47,1.12,1.18,2.32-.24.97-3.32,2.82-4.07,2.56-1.39-.49-2.43-2.74-1.95-4.25.49-1.54,1.54-1.95,3.65-1.41-.83,1.12-1.61,2.25-.58,3.85Z"/>
  <path class="cls-1" d="M125.26,262.05c.01-1.04,1.57-2.8,2.47-2.77.77.02,2.95,2.03,2.97,2.74.04,1.53-1.39,2.7-3.38,2.76-1.08.03-2.06-1.28-2.05-2.73Z"/>
  <path class="cls-1" d="M110.91,74.53c2.54-.34,2.59-.32,3.6.99.35-.08.71-.15,1.23-.27v2.39c.14.02.29.05.43.07.13-.54.2-1.11.4-1.62.13-.31.47-.54.71-.8.2.28.63.66.56.84-.4.99-.8,2.04-1.49,2.82-.19.21-1.37-.49-2.11-.75-.33-.12-.71-.3-1.02-.24-1.98.4-2.82-.39-2.43-2.32.07-.37.08-.75.11-1.11Z"/>
  <path class="cls-1" d="M103.86,213.89c-1.52-.48-.31-2.87-2.42-3.14-1.11-.14-2.06-1.55-3.16-2.45.6-.87.37-2.77,2.4-2.16,1,.3,1.49,2.32.9,3.9,1.77-.82,3.38-1.79,5.31-1.15-1.74,1.25-3.04,2.66-3.04,4.99Z"/>
  <path class="cls-1" d="M141.56,283.52c.55.84.88,1.63,1.46,2.18.88.84.81,1.68.37,2.63-.44.96-1.15.94-2.18,1.05-1.79.2-2.08-.73-2.38-1.95-.38-1.57.06-2.54,1.42-3.22.43-.22.85-.45,1.31-.69Z"/>
  <path class="cls-1" d="M99.72,264.85c.19-1.57,1.18-2.16,2.29-2.59.23-.09.77.15.92.39.67,1.09,1.25,2.23,1.85,3.36.08.14.06.34.14.48.16.27.37.52.56.78-.49.2-1.04.64-1.47.55-1.1-.24-2.23-.57-3.18-1.15-.54-.33-.75-1.2-1.11-1.83Z"/>
  <path class="cls-1" d="M171.12,116.13c1.33.02,2.9,1.58,2.86,2.84-.03,1.09-.42,2.04-1.63,2.02-2.52-.02-3.65-.77-3.59-2.13.09-2,.75-2.76,2.37-2.74Z"/>
  <path class="cls-1" d="M90.68,87.5c-.21.39-.45,1.51-.99,1.68-.9.29-2.36.36-2.93-.17-.64-.6-.89-2.05-.66-2.98.19-.77,1.23-1.54,2.06-1.88.8-.33,2.51,1.83,2.52,3.34Z"/>
  <path class="cls-1" d="M303.58,260.58c-.04,2-.47,2.49-2.17,2.43-1.6-.05-2.8-1.23-2.76-2.72.02-.81,1.84-2.35,2.77-2.34,1.33.02,2.2,1.07,2.16,2.63Z"/>
  <path class="cls-1" d="M181.16,222.98c1.07.34,2.06.65,3.05.96.46-1.54-.25-2.01-2.8-2.03.5-.47.94-1.09,1.53-1.37.7-.33,3.09,1.29,3.56,2.34.57,1.27-.56,1.95-1.16,2.74-.49.65-2.91.64-3.57.03-.77-.72-1.12-1.64-.62-2.67Z"/>
  <path class="cls-1" d="M48.78,219.97c-.93,2.75-.92,3.09.44,4.14.34-.21.7-.46,1.08-.64.29-.14.61-.21.92-.31-.21-.2-.56-.38-.6-.61-.09-.56-.03-1.14-.03-1.75,1.82.79,2.03,1.5.93,3.01-.25.35-.44.75-.72,1.08-1.44,1.76-1.67,1.78-3.68.38-.96-.67-1.54-3.05-.75-3.91.6-.65,1.59-.95,2.4-1.4Z"/>
  <path class="cls-1" d="M31.19,188.43c.1-1.76,1.36-3.25,2.75-3.23.91.01,2.26,1.98,2.16,3.16-.08.96-1.4,2.32-2.19,2.24-1.44-.15-2.78-1.21-2.72-2.17Z"/>
  <path class="cls-1" d="M198.52,146.06c.52.86,1.32,1.85,1.73,2.97.29.8-1.09,2.27-1.84,2.28-2.28.04-2.88-.59-2.99-2.63-.08-1.32,1.41-2.46,3.11-2.63Z"/>
  <path class="cls-1" d="M141.98,155.85c.27,1.04.49,1.93.72,2.81.36-.22.71-.44,1.1-.68.05.07.19.3.57.9-.12-1.08-.19-1.72-.25-2.2.69,0,1.29.04,1.9,0,1.09-.08,1.51.56,1.21,2.04-.77-.19-1.54-.39-2.32-.58-.4.61-.76,1.17-1.14,1.72-.13.19-.31.48-.49.5-1.12.12-2.25.21-3.38.24-.25,0-.69-.23-.71-.4-.04-.25.2-.55.34-.83.24-.46.68-.9.7-1.36.06-1.37.79-1.97,1.77-2.15Z"/>
  <path class="cls-1" d="M139.62,139.41c-1.17,1.14-2.28.39-3.29-.48-.25-.22-.29-.82-.25-1.23.12-1.14.86-1.85,1.92-2.1,1.5-.34,3.84,1.92,3.59,3.45-.08.48-.46.9-.71,1.35-.38-.3-.75-.59-1.27-1Z"/>
  <path class="cls-1" d="M182.26,298.8c.02-1.71.32-1.94,2.57-1.91,1.42.02,2.4.97,2.36,2.31-.03.93-1.42,2.33-2.33,2.34-1.37.02-2.61-1.29-2.6-2.73Z"/>
  <path class="cls-1" d="M104.15,296.2c.73.07,1.34.13,1.95.19-.38-.49-.75-.98-1.3-1.68,1.72-.67,3.05,1.57,4.61.65.29.54.71.96.65,1.3-.14.77-.37,1.6-.82,2.23-.51.72-1.21.3-1.86-.06-.59-.33-1.23-.66-1.89-.77-1.15-.21-1.63-.75-1.35-1.85Z"/>
  <path class="cls-1" d="M171.09,91.86c.01-1.72.69-2.33,2.57-2.29.75.02,2.19,1.47,2.19,2.22,0,.85-1.51,2.53-2.25,2.5-2.1-.07-2.52-.48-2.51-2.43Z"/>
  <path class="cls-1" d="M114.79,69.34c-.34-.54-.94-1.08-.94-1.61,0-.64.41-1.37.85-1.88.86-.97,1.5-.79,2.23.39,1.09,1.76,1.09,3.98-.46,5.15-.38.29-1.12.09-1.72.12.21-.88.38-1.55.54-2.23-.17.02-.34.04-.51.06Z"/>
  <path class="cls-1" d="M69.53,44.51c-.29-1.78-.57-3.49-.9-5.54-.99,1.09-1.81,1.99-2.63,2.9-.16-.12-.32-.23-.47-.35.34-.81.59-1.69,1.06-2.42.22-.34.87-.43,1.35-.55.51-.13,1.05-.17,1.85-.29,1.55.91,1.84,2.75,1.78,4.67-.01.44-.53.94-.93,1.27-.28.23-.75.22-1.1.31Z"/>
  <path class="cls-1" d="M262.88,242.74c-1.08-.03-2.28-1.25-1.92-2.34.31-.95,1.08-2.18,1.9-2.43,1.37-.41,2.89,1.51,2.78,3.09-.06.85-1.48,1.71-2.77,1.68Z"/>
  <path class="cls-1" d="M159.27,246.67c-.08,1.72-1.25,2.86-2.78,2.72-.77-.07-1.9-2.06-1.82-3.2.06-.8,1.42-1.93,2.28-1.89.94.04,2.36,1.49,2.31,2.37Z"/>
  <path class="cls-1" d="M82.55,171.06c1.68.02,2.42.9,2.32,2.77-.05.89-1.33,2.19-2.09,1.83-1.05-.51-2.28-1.29-2.7-2.27-.49-1.15.99-2.35,2.47-2.33Z"/>
  <path class="cls-1" d="M128.25,219.09c.6.02,1.95,2.03,1.55,2.72-.5.85-1.41,1.66-2.32,1.99-.87.31-2.53-1.43-2.53-2.32-.01-1.37,1.47-2.44,3.3-2.39Z"/>
  <path class="cls-1" d="M141.22,292.76c1.04,0,2.16,1.01,2.17,1.95,0,.93-1.4,2.49-2.23,2.47-1.46-.03-2.98-1.31-2.96-2.5.02-1.21,1.12-1.91,3.02-1.92Z"/>
  <path class="cls-1" d="M217.46,108.49c.94-.02,2.33,1.11,2.36,1.92.05,1.61-1.01,2.65-2.79,2.72-1.05.04-1.83-1.07-1.85-2.64-.02-1.29.76-1.97,2.28-2Z"/>
  <path class="cls-1" d="M61.13,157.49c-1.38-.03-1.92-.58-1.89-1.91.06-2.19.49-2.75,2.12-2.71,1.02.02,2.42,1.4,2.38,2.33-.05,1.1-1.44,2.32-2.61,2.29Z"/>
  <path class="cls-1" d="M166.93,263.9c-1.46,0-2.91-1.04-2.94-2.08-.04-1.36,1.31-2.83,2.7-2.44.85.24,1.62,1.41,2.02,2.34.31.72-1.1,2.18-1.78,2.18Z"/>
  <path class="cls-1" d="M104.31,47.19c-.03,1.67-1.05,2.79-2.5,2.74-.77-.02-1.88-1.81-1.86-3.01,0-.99,1.05-1.93,2.14-1.92.98,0,2.25,1.25,2.23,2.18Z"/>
  <path class="cls-1" d="M376.06,206.97c.6-.82,1.06-1.46,1.55-2.14-.04-.08-.1-.21-.17-.34-.26-.47-.53-.95-.79-1.42.29-.16.7-.52.85-.43.67.41,1.83,1.01,1.78,1.41-.17,1.32.25,2.86-1.39,3.83-2.15,1.27-3.48.95-4.55-1.59,1.06.26,2.07.51,2.72.67Z"/>
  <path class="cls-1" d="M140.1,70.99c.91-.05,1.81-.09,2.81-.14,1.14,1.57,1.28,3.42.21,5.24-.28.49-.99.72-1.5,1.08-.27-.49-.71-.97-.76-1.48-.07-.7.02-1.49.28-2.14.48-1.2.3-1.96-1.22-2.18.06-.12.13-.25.19-.37Z"/>
  <path class="cls-1" d="M392.18,195.59c-.21,2.31-.53,2.67-2.18,2.53-1.09-.09-2.34-1.32-2.28-2.25.04-.71,1.94-2.31,2.66-2.13.95.23,2,.49,1.8,1.85Z"/>
  <path class="cls-1" d="M166.99,91.92c-.88.21-1.41.34-1.98.47-.09-.55-.21-1.21-.33-1.95.35-.1.7-.2,1.27-.35-.84-1.04.12-2.6-1.3-3.47-.11-.07.07-1.01.23-1.05.8-.2,1.87-.57,2.41-.22.68.44,1.29,1.43.79,2.5-.04.09-.05.19-.07.28-1.49-.31-1.59-.16-1.26,1.34.19.88.18,1.8.24,2.45Z"/>
  <path class="cls-1" d="M110.83,265.2c.04-1.19,1.01-2.13,2.19-2.12.77,0,2.27,1.39,2.26,2.07-.03,1.44-.73,2.29-1.83,2.24-2.09-.09-2.68-.59-2.62-2.19Z"/>
  <path class="cls-1" d="M93.32,232.5c1.31.17,2.51.38,3.54,1.91,1.14,1.68.39,2.54-.51,3.62-.94-1.21-1.85-2.51-2.92-3.64-.25-.26-1.1.05-1.86.11.59-.67,1.12-1.28,1.75-2.01Z"/>
  <path class="cls-1" d="M109.71,211.08c.36.45.65.72.83,1.04.54.97,1.03,1.96,1.57,2.93.61,1.1-.08,1.98-.55,2.84-.12.21-1.23.23-1.31.06-.77-1.58-1.91-3.13-.9-5.06.21-.4.19-.91.36-1.81Z"/>
  <path class="cls-1" d="M117.26,225.83c.96.97,1.98,1.55,2.21,2.36.36,1.25-1.16,2.75-2.43,2.77-.74.02-1.96-1.64-1.7-2.85.16-.76,1.1-1.35,1.92-2.28Z"/>
  <path class="cls-1" d="M96.32,197.27c-.53.35-1.43,1.37-2.07,1.24-.83-.18-1.84-1.18-2.08-2.03-.3-1.07,1.34-2.42,2.53-2.45.99-.02,1.68,1.12,1.63,3.24Z"/>
  <path class="cls-1" d="M129.3,147.65c-.05,1.68-1.32,3.27-2.28,3.31-.94.04-1.81-1.24-1.78-2.62.02-1.17.95-2.08,2.17-1.93.95.11,1.86.48,1.89,1.23Z"/>
  <path class="cls-1" d="M83.21,29.18c-1.37.13-1.48-.93-1.45-1.95.05-1.54.86-2.3,2.22-2.21,1,.06,2.18,1.33,2.06,2.21-.12.91-1.69,2.04-2.83,1.96Z"/>
  <path class="cls-1" d="M54.5,45.29c1.46,0,2.04.58,1.81,2.49-.08.66-1.08,1.35-1.81,1.73-.55.29-2.43-1.45-2.42-2.07,0-1.17,1.13-2.16,2.43-2.16Z"/>
  <path class="cls-1" d="M32.89,134.96c1.34,1.51.93,3.36.07,5.16-.2.41-.83.61-1.27.9-.28-.43-.75-.83-.8-1.29-.08-.7.02-1.46.22-2.15.3-1.02.67-1.96-.67-2.64h2.45Z"/>
  <path class="cls-1" d="M353.68,180.51c1.5.06,2.63,1.19,2.53,2.52-.06.72-1.66,1.84-2.57,1.78-.65-.04-1.79-1.45-1.78-2.2.01-.88,1.09-2.13,1.81-2.1Z"/>
  <path class="cls-1" d="M253.39,255.68c-1.16-.29-2.06-1.35-2.06-2.39,0-.8,1.16-2.19,1.8-2.17,1.36.04,2.84,1.32,2.45,2.5-.27.84-1.43,1.38-2.2,2.06Z"/>
  <path class="cls-1" d="M113.08,126.17c1.06-1.61,2.35-1.94,3.71-1.52.62.19,1.25.83,1.55,1.43.15.29-.3,1.16-.7,1.42-1.63,1.04-2.82.68-3.99-1.01-.12-.18-.42-.24-.58-.32Z"/>
  <path class="cls-1" d="M112.51,109.7c-.44.32-1.3,1.35-1.78,1.2-.86-.26-1.94-1.15-2.13-1.96-.32-1.35.83-2.5,1.96-2.5,1.1,0,2.04,1.32,1.96,3.27Z"/>
  <path class="cls-1" d="M136.16,281.97c.36-.76.72-1.51,1.13-2.38,1.9-.65,3.45.18,4.65,1.77.27.36.4,1.19.17,1.49-.22.29-1.03.37-1.48.22-.72-.24-1.48-.62-2-1.15-.9-.91-1.49-.66-2.1.29-.13-.08-.26-.16-.38-.24Z"/>
  <path class="cls-1" d="M257.74,203.2c-.29.03-.57.06-1.13.12.24.53.55.98.64,1.47.13.69.17,1.41.11,2.1-.01.14-.68.28-1.05.31-.85.07-.97-.48-1.25-1.2-.42-1.08-1.3-1.97-2.04-3.03.62-.77.78-.75,2.69.79v-1.44c.7.12,1.41.23,2.11.35-.02.17-.05.34-.07.52Z"/>
  <path class="cls-1" d="M112.02,180.62c-.01-1.05,1.25-2.5,2.07-2.09.82.41,1.54,1.37,1.91,2.26.34.82-.73,1.99-1.49,1.96-1.8-.08-2.48-.65-2.5-2.13Z"/>
  <path class="cls-1" d="M181.9,99.05c.66-.09,1.31-.19,2.14-.31,1.6.99,1.99,2.66,1.38,4.6-.15.47-.64.83-.98,1.23-.37-.32-.94-.57-1.06-.96-.25-.82-.47-1.74-.34-2.56.18-1.07.03-1.68-1.14-2Z"/>
  <path class="cls-1" d="M50.59,238.22c0-1.29,1.03-2.43,2.22-2.47.58-.01,1.99,1.63,1.72,2.35-.28.76-.99,1.65-1.7,1.88-.94.3-2.24-.94-2.25-1.76Z"/>
  <path class="cls-1" d="M122.71,175.83c.17-1.46,1.04-2.48,2.02-2.37,1.09.12,2.23,1.31,1.83,2.31-.31.79-1.25,1.71-2.02,1.83-.74.11-2.02-.35-1.84-1.77Z"/>
  <path class="cls-1" d="M155.2,110.39c-.67-1.69.91-1.39,1.71-1.57,1.05-.24,1.98.65,2.06,1.72.07,1.01-.86,2.16-1.84,2.28-1.11.14-1.75-.64-1.92-2.43Z"/>
  <path class="cls-1" d="M85.05,219.04c.59-.14,1.23-.3,2.03-.49.87.78,1.7,1.66,1.67,3.27-.03,1.57-.26,2.58-2.01,2.4-.67-1.5.18-3.69-1.69-5.18Z"/>
  <path class="cls-1" d="M74.91,240.38c-.82-.02-2.44-1.65-2.06-2.32.43-.76,1.41-1.36,2.28-1.65.78-.26,1.87,1.08,1.84,1.98-.04,1.06-1.02,2.02-2.06,1.99Z"/>
  <path class="cls-1" d="M91.34,128.19c.73.24,1.46.49,2.22.74.72,3.61-.52,5.17-3.47,4.3.6-1.14,1.28-2.24,1.75-3.43.14-.36-.28-.95-.5-1.62Z"/>
  <path class="cls-1" d="M108.94,97.33c1.17.13,2.62-.58,3.17.99.21.6.04,1.78-.39,2.07-.63.43-1.85.66-2.45.33-1.46-.81-.66-2.16-.33-3.39Z"/>
  <path class="cls-1" d="M265.08,300.62c.45.66,1.23,1.35,1.4,2.16.24,1.13-1.15,2.2-2.62,1.85-.5-.12-.89-1.4-1.04-2.21-.26-1.43,1.08-1.31,2.25-1.79Z"/>
  <path class="cls-1" d="M108.01,221.33c.85.24,1.68.42,2.45.72,1.11.43,1.35,1.44.43,2.21-.66.54-1.56.89-2.4,1.04-.19.03-.77-1.09-.85-1.72-.08-.69.21-1.42.37-2.24Z"/>
  <path class="cls-1" d="M6.15,140.45c.21,1.28-.94,1.59-1.82,1.96-.59.25-1.64-1.08-1.65-1.94-.01-1.51.42-2.01,1.8-2.01,1.23,0,1.69.73,1.67,1.98Z"/>
  <path class="cls-1" d="M251.77,284.56c-1.73.28-2.97.39-4.14.72-.43.12-.7.77-1.08,1.21-.18-.57-.39-1.23-.63-2,.91-1.79,2.68-1.96,4.51-1.63.44.08.74.91,1.34,1.7Z"/>
  <path class="cls-1" d="M76.48,259.02c.79-.95,1.07-2.51,2.68-2.05.54.16,1.11.89,1.29,1.48.25.78.14,1.7-.83,2.09-1.49.59-2.22-.52-3.13-1.52Z"/>
  <path class="cls-1" d="M126.98,230.71c1.45-.9,3.49-1.03,4.48-.18-.67.48-1.33,1-2.03,1.46-1.52.98-1.06,2.16-.38,3.37.39.69.78,1.37.94,2.31-.33-.26-.85-.47-.96-.8-.46-1.42-.78-2.89-1.21-4.33-.18-.6-.53-1.16-.84-1.82Z"/>
  <path class="cls-1" d="M198.53,223.34c-1.24,0-2.15-.85-2.16-1.94-.01-1.65,1.42-1.33,2.3-1.51,1.02-.21,1.8.65,1.65,1.53-.14.84-.45,2.06-1.79,1.92Z"/>
  <path class="cls-1" d="M137.47,85.27c.99-.01,2.22,1.04,1.89,1.89-.29.74-1.09,1.58-1.82,1.77-.75.2-1.89-.1-1.92-1.38-.03-1.43.67-2.26,1.84-2.27Z"/>
  <path class="cls-1" d="M117.17,318.49c-1.25-1.05-2.11-1.89-1.64-3.26.28-.81.74-1.2,1.8-1.04,1.26.2,1.62,1.24,1.5,1.89-.16.86-1.05,1.58-1.65,2.4Z"/>
  <path class="cls-1" d="M102.93,156.58c.62-1.32,1.22-2.58,1.86-3.95-.23-.28-.51-.62-1.08-1.31,1.1.39,1.78.63,2.51.9.55,3.37-.79,5.23-3.29,4.36Z"/>
  <path class="cls-1" d="M73.23,212.47c-1.58.15-1.4-.98-1.51-2.02-.13-1.3.71-1.84,1.62-1.65.72.15,1.58.96,1.83,1.68.34.93-.85,1.99-1.95,1.99Z"/>
  <path class="cls-1" d="M43.86,51.45c1.03,0,1.81-1.65,2.84-.36.45.56.66,1.55.52,2.26-.09.49-1.01,1.24-1.47,1.18-1.68-.21-1.52-1.77-1.9-3.08Z"/>
  <path class="cls-1" d="M328.08,290.54c-.74-.77-1.62-1.25-1.69-1.84-.18-1.46.56-2.14,1.85-2.12.87.01,2.28,1.35,1.93,2.01-.38.7-1.21,1.16-2.09,1.95Z"/>
  <path class="cls-1" d="M163.45,116.84c.18-.63-.09-1.97,1.48-1.99,1.22-.01,2.21.91,1.9,2.01-.2.7-1.06,1.52-1.76,1.69-.58.14-1.92.02-1.61-1.71Z"/>
  <path class="cls-1" d="M126.13,300.86c-.05-1.39,1.3-1.45,1.91-1.36.67.1,1.58,1,1.69,1.67.1.62-.06,1.91-1.39,1.87-1.25-.04-2.23-1.03-2.2-2.18Z"/>
  <path class="cls-1" d="M132.81,307.44c.1,1.14-.8,1.58-1.54,1.42-.8-.18-1.98-.87-2.07-1.47-.11-.74.14-2.12,1.68-1.99,1.24.1,1.94.78,1.93,2.04Z"/>
  <path class="cls-1" d="M170.28,173.44c.9.4,2.26.15,2.27,1.95,0,1.17-.7,1.6-1.45,1.9-.36.14-1.15-.26-1.47-.65-.96-1.19-.49-2.25.64-3.19Z"/>
  <path class="cls-1" d="M112.4,195.53c.39-.49.68-1.1,1.16-1.4.41-.26,1.16-.4,1.54-.19.51.28.91.9,1.16,1.47.08.18-.44.63-.78,1.09.08.09.32.35.56.61-1.15.88-2.57.23-3.64-1.57Z"/>
  <path class="cls-1" d="M168.92,61.2c-.95.2-1.5.32-2.05.43.13.33.25.67.54,1.44-.6-.44-1.17-.64-1.27-.97-.31-1.07-1.41-2.13-.53-3.25.34-.43,1.75-.7,1.93-.47.64.84.97,1.92,1.37,2.82Z"/>
  <path class="cls-1" d="M350.19,215.21c-.27.06-.55.19-.81.16-.29-.04-.67-.15-.82-.36-.12-.17-.05-.58.08-.81.67-1.21,2.83-1.93,4.1-1.34.26.12.59.52.56.74-.06.39-.29.91-.61,1.06-.77.36-1.62.54-2.44.8-.02-.08-.04-.16-.07-.25Z"/>
  <path class="cls-1" d="M91.47,159.39c.69-.47,1.28-.94,1.93-1.28.27-.14.84-.14.99.04.65.77,1.2,1.63,1.82,2.5-1.06,1.57-3.53.64-4.74-1.26Z"/>
  <path class="cls-1" d="M60.87,4.79c.57.2,1.14.41,1.76.63,1.21,1.51.24,2.87-.73,4.03-.35.42-1.4.25-2.11.34.37-1.01.67-1.82.96-2.63.27-.76,1.37-1.52.11-2.37Z"/>
  <path class="cls-1" d="M86.81,283.87v-1.64c-.63-.08-1.19-.15-1.8-.22v-1.31c.82.17,1.64.59,2.29.4.52-.16.83-1.05,1.35-1.53-.57,2.01,0,3.39,2.01,4.55-1.32.89-2.41-1.92-3.86-.24Z"/>
  <path class="cls-1" d="M92.21,314.81c1.31,0,2.31.75,2.03,1.71-.17.59-1.06,1.37-1.61,1.36-.68-.01-2.11.35-2.03-1.12.06-.95.09-2.2,1.6-1.95Z"/>
  <path class="cls-1" d="M175.67,200.07c.08,1.13-.61,1.45-1.64,1.41-1.16-.04-2.13-.53-1.86-1.75.14-.63,1.06-1.31,1.76-1.52.77-.23,1.79,1.01,1.74,1.86Z"/>
  <path class="cls-1" d="M190,336.79c-1.38,0-2.4-.81-2.09-1.91.17-.61.99-1.23,1.65-1.44.85-.27,1.86,1.07,1.84,2.21-.02.9-.32,1.15-1.4,1.15Z"/>
  <path class="cls-1" d="M264.9,213.93c.77.41,1.46.78,2.16,1.15-.16-.7-.32-1.39-.55-2.39.46.15,1.3.24,1.34.47.17.98.4,2.14.01,2.94-.23.46-1.85.76-2.41.42-.9-.55-1.44-1.69-.55-2.6Z"/>
  <path class="cls-1" d="M151.59,68.01c-.48.03-1.24.08-2,.14-.16-.49-.33-1.01-.52-1.56.99-.48,3.53-.07,4.26.97.34.48.53,1.22.42,1.78-.05.28-1.25.67-1.36.54-.38-.45-.51-1.12-.8-1.87Z"/>
  <path class="cls-1" d="M103.19,129.29q-.72-.83-3.44-.71c-.12-.67-.24-1.33-.39-2.12,1.63.02,3.08.95,4.2,2.08.34.34-.48,1.84-.77,2.81-.44-.2-.89-.41-1.33-.61.22-.48.37-1.02.69-1.42.13-.16.62-.03,1.04-.03Z"/>
  <path class="cls-1" d="M238.15,253.95c-.23.75-.39,1.57-.75,2.3-.15.3-.95.64-1.04.55-.75-.75-1.6-1.5-2.01-2.43-.36-.83.77-1.58,2.06-1.48q.41,1.76,1.74,1.06Z"/>
  <path class="cls-1" d="M65.23,113.65c1.37-.04,2.46.48,2.47,1.94,0,.59-.66,1.31-1.21,1.73-.22.17-1.07-.15-1.4-.48-1.05-1.06-.68-2.16.13-3.19Z"/>
  <path class="cls-1" d="M61.98,229.73c1.05-.12,1.99-1.43,2.88-.08.35.53.46,1.44.25,2.03-.16.45-1.04.99-1.52.92-1.62-.23-1.21-1.75-1.61-2.87Z"/>
  <path class="cls-1" d="M157.25,55.45q1.01,2.77,3.5,1.88c-.43.73-.69,1.84-1.32,2.12-1.22.55-2.57-.27-3.2-1.35-.74-1.28.27-1.78,1.02-2.65Z"/>
  <path class="cls-1" d="M137.27,257.19c-.37-1.48-2.27.52-2.18-1.55.05-1.1.06-2.07,1.54-1.98,1.02.06,2.21,1.22,1.98,2.11-.12.47-.73.8-1.34,1.42Z"/>
  <path class="cls-1" d="M257.8,308.1c-.04-1.65.86-2.16,1.66-2.01.67.12,1.47.9,1.71,1.57.29.81-1.03,1.93-2.13,1.71-.57-.11-1-1-1.24-1.27Z"/>
  <path class="cls-1" d="M47.51,196.21c.51.18,1.81-.45,2.07.83.21,1.06-.04,2.23-.23,3.33-.04.25-.67.55-1.02.54-.23,0-.61-.5-.64-.81-.07-.67.08-1.35.06-2.03-.02-.58-.14-1.16-.24-1.86Z"/>
  <path class="cls-1" d="M65.62,124.07c.83.46,1.76.79,2.39,1.41.23.22-.07,1.44-.46,1.71-.52.35-1.57.54-2.05.24-1.32-.83-.53-1.96.12-3.36Z"/>
  <path class="cls-1" d="M156.17,328.55c-1.53-.12-2.17-1.02-2.28-1.91-.06-.44.93-1.3,1.57-1.47,1.09-.29,2.17.79,1.99,1.97-.08.52-.83.94-1.27,1.41Z"/>
  <path class="cls-1" d="M157.64,222.78c.19-2.24.72-2.81,2.26-2.62,1.77.21,2.5.93,2.24,2.12-1.41.97-3.04-1.31-4.5.5Z"/>
  <path class="cls-1" d="M361.68,239.71c-.13-.89-.45-1.84-.31-2.72.05-.33,1.27-.84,1.73-.66.56.21,1.22,1.04,1.25,1.62.06,1.42-1.23,1.48-2.67,1.76Z"/>
  <path class="cls-1" d="M79.02,288.8c1.39,0,2.25.66,2.13,1.99-.05.55-.64,1.27-1.16,1.49-.37.15-1.23-.28-1.52-.7-.7-1-.38-2,.55-2.78Z"/>
  <path class="cls-1" d="M87.91,21.67c-.32.12-.66.25-1.09.41.2.33.36.59.6.97-.36.05-.71.19-.78.1-.68-.83-1.42-1.65-1.88-2.6-.08-.17,1.05-1.34,1.59-1.32,1.32.06,1.59,1.21,1.56,2.44Z"/>
  <path class="cls-1" d="M55.43,125.63c.05.11.19.41.33.71l-.32.36c-.43-.33-.98-.59-1.25-1.02-.31-.5-.41-1.16-.51-1.76-.04-.21.15-.65.31-.68.74-.17,1.57-.47,2.23-.26.37.12.66,1.13.61,1.71-.02.32-.82.57-1.4.94Z"/>
  <path class="cls-1" d="M313.85,289.65c.8-.81,1.38-1.86,2.15-2.02.61-.12,1.44.86,2.21,1.38-1.81,2.06-1.87,2.07-4.37.64Z"/>
  <path class="cls-1" d="M106.56,159.8c.52-.62.96-1.16,1.55-1.86.55,1.43,1.09,2.66,1.46,3.94.09.32-.29.88-.6,1.17-.17.16-.85.12-.96-.05-.37-.56-.6-1.21-.85-1.84-.04-.09.11-.26.16-.39.13-.32.24-.65.37-.97h-1.13Z"/>
  <path class="cls-1" d="M415.69,218.15c.21-1.1.25-2.41,1.72-2.3.57.04,1.24.74,1.57,1.32.16.28-.25,1.08-.61,1.41-.95.88-1.83.35-2.68-.43Z"/>
  <path class="cls-1" d="M120.93,125.39c.22.59,1.83.42,1.28,1.67-.44,1.01-1.2,1.9-1.91,2.77-.13.16-.79.11-1-.07-.2-.17-.25-.71-.13-1,.22-.53.64-.97.92-1.48.3-.57.53-1.18.84-1.89Z"/>
  <path class="cls-1" d="M47.38,182.1c-.08-1.79.72-2.46,1.72-2.38.51.04,1.27,1.02,1.34,1.64.15,1.2-.92,1.61-1.9,1.56-.49-.03-.96-.66-1.16-.82Z"/>
  <path class="cls-1" d="M94.08,65.59c.21.25,1.1.9,1,1.31-.18.75-.84,1.74-1.5,1.94-.83.25-1.7-.52-1.53-1.54.12-.73.23-1.78,2.03-1.71Z"/>
  <path class="cls-1" d="M79.74,150.24c.81-.75,1.29-1.56,1.92-1.71.94-.22,1.72.52,1.69,1.49-.03,1.05-.8,1.84-1.86,1.76-.51-.04-.96-.81-1.76-1.54Z"/>
  <path class="cls-1" d="M331.32,200.2c-.54-1.09-2.18-1.93-.49-3.15.88-.63,2.19-.37,2.55.48.73,1.75-1.12,1.86-2.05,2.67Z"/>
  <path class="cls-1" d="M81.84,268.63c-.07-.48-.03-.9-.2-1.21-.6-1.12.25-1.43.96-1.61.69-.18,1.61-.31,1.57.94,0,.12.13.28.25.36.24.17.52.31.78.46-.33.3-.61.79-.98.88-.73.18-1.51.13-2.38.19Z"/>
  <path class="cls-1" d="M36.34,2.43c1.08-.12,2.16-.14,2.5,1.09.13.45-.15,1.3-.52,1.54-.47.31-1.41.46-1.81.19-1.14-.76-.55-1.83-.17-2.83Z"/>
  <path class="cls-1" d="M144.96,169.75c-.27-1.3.78-1.77,1.58-1.75.45.01,1.11,1.1,1.22,1.78.07.43-.79,1.47-1.09,1.41-.72-.13-2.09.08-1.71-1.45Z"/>
  <path class="cls-1" d="M73.33,31.78c1.06-.13,2.34-.29,4.03-.5-.7.75-.98,1.24-1.4,1.47-1.72.93-1.72,2.23-.8,3.79-.14.04-.27.08-.41.12-.32-.63-.75-1.22-.94-1.89-.24-.86-.29-1.77-.48-2.99Z"/>
  <path class="cls-1" d="M166.39,67.9c-.55-1.02-1.18-1.66-1.08-2.14.13-.61,1.06-1.64,1.26-1.56.75.3,1.34.99,1.99,1.54-.61.6-1.21,1.2-2.17,2.16Z"/>
  <path class="cls-1" d="M101.97,202.75c.49-.38.87-.6,1.16-.91.6-.62,1.24-.43,1.59.12.33.51.34,1.21.49,1.83-.7.13-.8.61-.69,1.21-.36-.02-.89.11-1.05-.08-.55-.63-.97-1.38-1.5-2.18Z"/>
  <path class="cls-1" d="M127.17,124.41c1.07.81,1.94,1.36,2.66,2.06.27.26.38,1.2.26,1.27-.59.32-1.29.59-1.95.58-.29,0-.72-.69-.82-1.12-.16-.73-.1-1.51-.16-2.78Z"/>
  <path class="cls-1" d="M77.04,151.02c1.95-1.11,2.35-1.04,2.97.28.5,1.05-.16,1.61-.87,2.01-.86.48-1.55-.29-2.11-2.28Z"/>
  <path class="cls-1" d="M24.86,55.93c.27,1.85-.82,2.01-1.67,2.14-.83.13-1.12-.51-1.13-1.32-.01-1.04.48-1.79,1.45-1.75.57.02,1.1.75,1.35.94Z"/>
  <path class="cls-1" d="M258.17,224.09c.86.24,1.64.47,2.47.7.06-.8.11-1.36.15-1.91.22-.03.44-.06.66-.09.2.75.79,1.75.51,2.2-.4.64-1.41,1.14-2.21,1.21-1.29.12-1.56-.96-1.59-2.12Z"/>
  <path class="cls-1" d="M122.81,93.45c.8.42,1.7.63,2.08,1.19.26.38-.03,1.41-.42,1.86-.27.32-1.26.42-1.66.18-1.29-.8-.33-1.84,0-3.23Z"/>
  <path class="cls-1" d="M96.73,279.39c.93.23,1.86.46,2.66.66.26-.19.63-.68,1.01-.68.62,0,1.26.28,1.83.55.11.05.07.87-.1.96-.56.29-1.3.7-1.81.54-1.26-.4-2.44-1.08-3.64-1.65.02-.13.03-.25.05-.38Z"/>
  <path class="cls-1" d="M94.84,212.91c-1.72.75-3.15,1.7-3.23,3.53-.13-.32-.47-.77-.36-.95.71-1.2-.11-1.73-.98-2.24,1.9-1.24,2.81-.99,4.57-.34Z"/>
  <path class="cls-1" d="M64.12,203.42c1.08,1.34,1.28,2.68.38,3.02-.61.23-1.65.29-2.04-.07-.77-.72.09-2.19,1.65-2.95Z"/>
  <path class="cls-1" d="M24.74,201.67c-.17-1.24.69-1.38,1.46-1.14.54.17,1.24.76,1.33,1.26.16.93-.53,1.56-1.49,1.53-.99-.03-1.48-.64-1.3-1.66Z"/>
  <path class="cls-1" d="M81.28,39.36c-.93-.36-2.03-.44-2.43-1-1.04-1.47.46-2.57.89-3.86.59.89,1.29,1.64.58,2.81-.17.28.47,1.05.96,2.05Z"/>
  <path class="cls-1" d="M271.87,227.24c-.88-.64-1.55-.96-1.95-1.48-.35-.46-.4-1.15-.58-1.73.65-.15,1.37-.53,1.93-.37.47.13,1.17.66.64,1.6-.27.48-.05,1.23-.05,1.98Z"/>
  <path class="cls-1" d="M172.17,38.71c.21,1.25-.77,1.71-1.45,1.68-.49-.02-1.22-.96-1.3-1.56-.05-.4.82-1.26,1.33-1.31.56-.05,1.77-.01,1.42,1.19Z"/>
  <path class="cls-1" d="M156.23,235.27c-.55-.34-1.1-.67-1.64-1.01-.09.1-.19.19-.28.29.12.34.3.68.33,1.03.02.27-.08.65-.27.79-.15.11-.72-.04-.74-.15-.14-.72-.39-1.51-.21-2.17.25-.91,1.09-1.27,2.05-1.1.63.12,1.07,1.88.78,2.32Z"/>
  <path class="cls-1" d="M205.43,83.6c-.78-.02-1.81-.53-1.64,1.43-.14-.16-.28-.33-.43-.49-.38-.78-.76-1.57-1.13-2.35.69-.33,1.55-1.07,2.04-.88.65.25,1.03,1.23,1.53,1.89-.13.13-.25.27-.38.4Z"/>
  <path class="cls-1" d="M93.84,202.33c.49.62,1.24,1.18,1.39,1.87.08.39-.8,1-1.25,1.5-.46-.51-1.14-.96-1.31-1.56-.13-.47.36-1.12.57-1.69.2-.04.4-.09.6-.13Z"/>
  <path class="cls-1" d="M104.79,220.67c-.77-.85-1.54-1.31-1.58-1.82-.05-.75.26-1.69,1.42-1.61,1,.07,1.58.64,1.4,1.61-.1.54-.65.99-1.24,1.82Z"/>
  <path class="cls-1" d="M65.12,185.95c1.15-.54,2.03-1.36,2.9-.14.48.67-.03,2.25-.88,2.42-1.83.37-1.12-1.51-2.02-2.28Z"/>
  <path class="cls-1" d="M159.79,148.06c-.06-.83-.27-1.68-.1-2.46.06-.28,1.13-.63,1.54-.46.44.18,1.01,1.11.87,1.4-.32.69-1.04,1.19-1.59,1.78-.24-.08-.48-.17-.72-.25Z"/>
  <path class="cls-1" d="M230.29,266.24c.08.91.12,1.31.16,1.72.1.03.19.07.29.1.16-.31.33-.62.51-.97.83-.07.85.9-.07,1.58-.5.37-1.03.71-1.9,1.31-.28-.89-.74-1.7-.71-2.5.01-.37.95-.72,1.72-1.25Z"/>
  <path class="cls-1" d="M80.23,119.53c.89-.74,1.43-1.19,1.97-1.64.41.51,1.05.97,1.2,1.54.3,1.22-.81,1.46-1.61,1.53-.37.03-.8-.71-1.56-1.44Z"/>
  <path class="cls-1" d="M101.04,117.98c.5.59,1.14,1.12,1.43,1.8.1.24-.57,1-1.04,1.24-.35.18-1.34-.08-1.34-.14,0-.9.13-1.79.23-2.69.24-.07.48-.14.71-.2Z"/>
  <path class="cls-1" d="M275.85,222.22c-.5-.63-1.12-1.14-1.35-1.79-.17-.51-.04-1.49.3-1.71.39-.25,1.32-.05,1.73.29.25.21.02,1.08-.09,1.63-.11.5-.36.97-.59,1.58Z"/>
  <path class="cls-1" d="M161.54,243.85c-1.29-.09-1.64-.55-1.66-1.55-.03-1.02.59-1.41,1.32-1.2.61.17,1.25.79,1.5,1.37.11.25-.74.91-1.15,1.38Z"/>
  <path class="cls-1" d="M27.42,253.41c.74.71,2.41.93,1.3,2.43-.31.43-1.39.74-1.83.53-.97-.48-.74-1.59.53-2.95Z"/>
  <path class="cls-1" d="M151.08,134.56c-1.17.19-1.35-.63-1.12-1.33.18-.58.82-1.01,1.26-1.5.45.51,1.23,1,1.25,1.53.03.59-.26,1.63-1.38,1.31Z"/>
  <path class="cls-1" d="M121.91,117.62c-.56-.56-1.27-.94-1.29-1.34-.03-.94.65-1.59,1.61-1.36.6.14,1.09.73,1.63,1.12-.58.47-1.16.94-1.95,1.59Z"/>
  <path class="cls-1" d="M102.5,255.62c-.75-1.26-1.47-2.48-2.19-3.7.18-.17.36-.34.54-.52.58.37,1.38.6,1.71,1.12.63,1.03,1.01,2.22-.05,3.09Z"/>
  <path class="cls-1" d="M148.66,230.56c.24.39.48.79.73,1.19-.79.41-1.43.23-1.68-.67-.24-.86-.39-1.85.81-2.28.96-.34,1.82.31,2.17,1.63-.61-.09-1.24-.19-1.87-.28-.05.14-.11.27-.16.41Z"/>
  <path class="cls-1" d="M117.77,140.81c-.75-.9-1.5-1.42-1.45-1.84.06-.51.84-1.31,1.26-1.29.52.03,1.24.71,1.41,1.26.11.35-.6.96-1.23,1.87Z"/>
  <path class="cls-1" d="M124.13,126.2c.33.52,1.03,1.14.92,1.54-.17.61-.88,1.08-1.37,1.61-.37-.46-1.05-.92-1.04-1.37.01-.6.56-1.19.87-1.78.21,0,.41,0,.62,0Z"/>
  <path class="cls-1" d="M246.2,265.66c.51,1.73.88,3.58,3.19,3.93h-3.59v-3.87c.13-.02.27-.04.4-.05Z"/>
  <path class="cls-1" d="M74.22,165.57c.3-1.1,0-2.55,1.69-2.34.39.05,1.03,1.02.95,1.44-.28,1.44-1.39,1.29-2.64.9Z"/>
  <path class="cls-1" d="M212.58,247.64c-.64-.7-1.39-1.15-1.4-1.62-.02-.68.52-1.18,1.46-1.2,1.08-.02,1.43.71,1.48,1.4.02.36-.8.78-1.54,1.42Z"/>
  <path class="cls-1" d="M119.48,85.11c.33.58.87,1.15.9,1.74.02.4-.7,1.21-1.04,1.19-.64-.05-1.73-.16-1.42-1.32.16-.59.62-1.1.95-1.64l.61.03Z"/>
  <path class="cls-1" d="M119.81,166.07c1.08.86,1.51,2.59,1,3.28-.15.21-.6.43-.76.35-.38-.2-.97-.61-.94-.88.09-.88.42-1.74.7-2.75Z"/>
  <path class="cls-1" d="M148.92,204.73c.13-.68.03-1.67.44-1.98,1.05-.8,1.82.13,2.89,1.17-1.11.41-2,.74-2.89,1.07-.15-.08-.29-.17-.44-.25Z"/>
  <path class="cls-1" d="M115.56,175.5c.04-.61.08-1.23.12-1.84-.14-.05-.28-.09-.42-.14-.29.47-.58.93-1.04,1.68-.23-.48-.55-.84-.51-1.14.14-1.07,1.09-1.32,1.92-1.33.42,0,1.22.69,1.18.97-.11.72-.59,1.39-.92,2.08l-.33-.28Z"/>
  <path class="cls-1" d="M147.09,39.85c.9-.7,1.92-.41,2.38.7.31.73,1.19,2.02-.6,2.43-.57-1.01-1.15-2.03-1.78-3.14Z"/>
  <path class="cls-1" d="M137.95,63.03c-.62-.13-1.59-.8-.95.78-1.87-.54-.76-1.93-1.25-2.76,2.36-.45,2.8-.07,2.19,1.98Z"/>
  <path class="cls-1" d="M83.5,1.96c.14.39.26.72.39,1.05-.07.05-.2.16-.22.15-.27-.25-.69-.49-.74-.78-.11-.69-.03-1.41-.03-2.37.65.16,1.48.3,2.24.61.18.07.21,1.07.11,1.11-.46.17-1,.16-1.75.23Z"/>
  <path class="cls-1" d="M201.21,248.25c.51-.23,1.01-.47,1.52-.7-.01-.13-.02-.26-.03-.39-.53-.03-1.06-.06-1.88-.1.34-.39.68-.97.85-.93.69.19,1.66.43,1.87.93.2.46-.31,1.41-.78,1.88-.25.25-1.06-.07-1.62-.13.02-.19.05-.38.07-.57Z"/>
  <path class="cls-1" d="M190.88,264.5c-.6.1-1.2.19-1.95.31.4.69.71,1.21,1.02,1.74-.11.12-.22.24-.34.36-.56-.43-1.36-.77-1.59-1.33-.2-.49.14-1.74.43-1.8.79-.17,1.68.11,2.52.21-.03.17-.06.34-.09.52Z"/>
  <path class="cls-1" d="M53.26,194.8c-.26-.67,1.66-1.74-.45-2.52.14-.14.29-.27.43-.41,1.17.23,2.35.46,3.6.71-1.32.82-2.44,1.52-3.58,2.22Z"/>
  <path class="cls-1" d="M191.81,235.62c.22.35.71.8.62,1.03-.27.71.2,1.97-1.14,1.97-.34,0-1.01-.64-.96-.86.17-.75.59-1.44.92-2.16.19,0,.37.02.56.02Z"/>
  <path class="cls-1" d="M246.22,218.21c-.81-.69-1.5-1.27-2.51-2.13.96-.34,1.72-.9,2.22-.73,1.25.45.79,1.52.29,2.86Z"/>
  <path class="cls-1" d="M273.42,197c-.83.64-1.42,1.36-1.7,1.26-.52-.19-1.04-.82-1.21-1.37-.07-.23.73-1.01,1.18-1.04.43-.03.91.57,1.74,1.15Z"/>
  <path class="cls-1" d="M39.23,130.14c1.25.38,2.31.7,3.37,1.02-.04.11-.08.22-.12.32-1.15.32-2.29.65-3.72,1.05.16-.84.28-1.43.47-2.4Z"/>
  <path class="cls-1" d="M175.78,144.37c.39.71.81,1.48,1.22,2.25-.08.16-.16.32-.24.48-.74-.16-1.8-.06-2.15-.51-.98-1.27.67-1.56,1.17-2.22Z"/>
  <path class="cls-1" d="M157.11,216.8c-.67-.12-1.61-.29-2.89-.51.24-.98.48-1.93.72-2.88.79,1.25,1.48,2.33,2.17,3.4Z"/>
  <path class="cls-1" d="M271.08,239.63c-.47.36-.9.68-1.33,1.01-.11-.12-.21-.24-.32-.37.27-.25.5-.6.81-.72.62-.22,1.28-.39,1.93-.4.43,0,.86.31,1.29.48-.19.44-.27,1.05-.6,1.26-.24.16-.87-.12-1.23-.35-.27-.18-.37-.6-.55-.92Z"/>
  <path class="cls-1" d="M130.55,68.62c-.29-.56-.77-1.11-.8-1.69-.02-.3.83-.97,1.14-.9.49.12,1.16.71,1.19,1.15.03.46-.59.96-.93,1.45-.2,0-.4,0-.61-.01Z"/>
  <path class="cls-1" d="M125.82,65.93c-.56,0-1.16-.13-1.68.02-1.47.43-1.7-.62-2.06-1.56,1.38-.43,3.17.38,3.74,1.54Z"/>
  <path class="cls-1" d="M114.21,294.96c.71.13,1.45.18,2.11.45.14.05.11,1.02-.13,1.34-.22.28-1.04.48-1.26.3-.47-.38-.73-1.02-1.08-1.56.12-.17.24-.35.36-.52Z"/>
  <path class="cls-1" d="M135.8,52.48c-.68.57-1.15,1.25-1.51,1.2-.51-.08-.93-.7-1.39-1.09.43-.37.82-.95,1.3-1.04.37-.07.86.48,1.6.94Z"/>
  <path class="cls-1" d="M120.43,286.21c-.46.26-.98.81-1.35.71-.47-.12-.97-.7-1.12-1.19-.09-.29.58-1.16.71-1.12.62.19,1.17.6,1.75.93,0,.22,0,.44.01.66Z"/>
  <path class="cls-1" d="M123.35,140.8c.61.81,1.21,1.26,1.16,1.62-.07.46-.66.85-1.02,1.27-.4-.43-.94-.82-1.13-1.33-.09-.26.46-.76.99-1.56Z"/>
  <path class="cls-1" d="M68.38,2.47c1.3.66,2.43,1.23,3.56,1.8-.04.08-.08.16-.12.24-.76,0-1.52.04-2.28,0-1-.06-1.48-.57-1.16-2.03Z"/>
  <path class="cls-1" d="M299.95,282.37c-.08.73-.1,1.47-.31,2.16-.05.16-.83.26-1.16.12-.31-.14-.73-.8-.64-.94.38-.61.93-1.11,1.41-1.65.23.1.46.21.7.31Z"/>
  <path class="cls-1" d="M123.16,76.68c-1.08.36-2.16.71-3.24,1.07-.12-.12-.24-.24-.36-.36.25-.41.41-.95.78-1.2.89-.64,1.84-.4,2.75-.09.03.19.05.39.08.58Z"/>
  <path class="cls-1" d="M122.65,196.81c.24-.55.34-1.29.76-1.59.38-.27,1.46-.27,1.6-.03.32.54.25,1.32.34,2-.14.03-.29.07-.43.1-.2-.45-.4-.9-.69-1.53-.4.49-.71.87-1.02,1.24l-.56-.19Z"/>
  <path class="cls-1" d="M127.28,36.62c.48.64,1.06,1.08,1.03,1.46-.04.41-.75,1.12-1.01,1.06-.54-.14-.98-.69-1.45-1.08.41-.41.81-.81,1.43-1.44Z"/>
  <path class="cls-1" d="M242.15,220.19c.61-1.39,1.38-1.63,2.74-.56.24.19.3.62.45.93-.32.06-.65.21-.95.16-.76-.13-1.51-.35-2.24-.53Z"/>
  <path class="cls-1" d="M241.82,279.95c-.58.16-1.12.32-1.96.56-.12-1.16-.22-2.23-.33-3.3.09-.01.18-.02.28-.03.64.88,1.27,1.75,2.01,2.77Z"/>
  <path class="cls-1" d="M127.81,183.35c.62.73,1.27,1.18,1.32,1.68.04.38-.7.84-1.09,1.26-.35-.45-.86-.86-.98-1.36-.08-.36.37-.84.75-1.58Z"/>
  <path class="cls-1" d="M156.09,85.88c.54.78,1.09,1.22,1.04,1.59-.05.44-.6.83-.93,1.24-.42-.44-.97-.83-1.19-1.35-.09-.22.52-.74,1.08-1.48Z"/>
  <path class="cls-1" d="M163.98,202.04c-.86.31-.95,1.99-2.31,1.18-.24-.14-.31-1.17-.1-1.36.67-.57,1.53-1.21,2.41.19Z"/>
  <path class="cls-1" d="M115.01,273.88c.87.96.78,1.76-.09,2.18-.37.18-1.4-.12-1.55-.46-.82-1.86,1.33-.8,1.64-1.72Z"/>
  <path class="cls-1" d="M113.53,62.32c-.06-.91-.12-1.82-.19-2.91.15.02.84-.04.9.13.23.65.35,1.38.32,2.07-.01.35-.42.69-.65,1.03-.13-.11-.25-.21-.38-.32Z"/>
  <path class="cls-1" d="M255.58,210.56c.48.79.83,1.24,1.05,1.75.12.29.18.82.02.98-.2.2-.87.28-.98.14-.4-.5-.79-1.1-.88-1.71-.05-.33.5-.76.8-1.16Z"/>
  <path class="cls-1" d="M68.1,86.93c-.59-.09-1.27-.05-1.75-.34-.25-.15-.21-.91-.14-1.36.03-.19.65-.51.73-.45.56.46,1.04,1,1.55,1.52l-.39.62Z"/>
  <path class="cls-1" d="M170.72,313.86c-.3.88-.71,1.71-1.77,1.21-.36-.17-.43-.95-.64-1.45.79-.16,1.62-.96,2.41.24Z"/>
  <path class="cls-1" d="M97.69,284.46c-.6-.39-1.2-.78-1.8-1.17.49-.38.97-.77,1.46-1.15.34.55.68,1.1,1.01,1.65-.22.22-.45.45-.67.67Z"/>
  <path class="cls-1" d="M129.41,312.36c.79-.2,1.58-.4,2.37-.6.11.17.22.34.33.51-.43.53-.78,1.27-1.33,1.5-.34.14-1.01-.49-1.53-.77.05-.21.11-.42.16-.63Z"/>
  <path class="cls-1" d="M85.94,47.33c-.28-.39-.55-.77-.88-1.24-.32.38-.6.7-.87,1.02-.13,0-.26-.01-.39-.02.03-.38-.06-1.04.1-1.1.64-.27,1.39-.55,2.02-.42.27.05.35,1.08.52,1.66-.16.03-.32.07-.49.1Z"/>
  <path class="cls-1" d="M178.44,236.24c-.73.68-1.16,1.17-1.69,1.5-.09.06-.9-.7-.85-.81.27-.52.66-1.02,1.14-1.35.16-.11.69.31,1.4.66Z"/>
  <path class="cls-1" d="M192.67,92.87c-.49.27-.95.59-1.46.8-.65.26-1.44.69-1.73-.44-.06-.22.13-.73.23-.74,1.02-.05,2.05-.03,3.07-.03-.04.14-.07.28-.11.41Z"/>
  <path class="cls-1" d="M14.07,180.98c-.64-.33-1.29-.66-1.93-1,.33-.58.66-1.15,1.15-2.01.55,1.19.86,1.87,1.17,2.55-.13.15-.26.3-.39.46Z"/>
  <path class="cls-1" d="M115.59,273.43c-.23-.57-.52-1.13-.64-1.73-.04-.18.47-.67.64-.63.46.11,1.24.46,1.22.66-.05.58-.43,1.13-.68,1.69-.18,0-.37,0-.55.01Z"/>
  <path class="cls-1" d="M183.72,236.1c.41.8.9,1.4.78,1.58-.31.44-.86.79-1.38.95-.17.05-.87-.74-.79-.88.25-.51.73-.9,1.4-1.64Z"/>
  <path class="cls-1" d="M204.02,92.8c-.78-.71-1.87.93-2.3-.62-.07-.24.48-.89.84-.97.94-.24,1.6.11,1.46,1.6Z"/>
  <path class="cls-1" d="M146.77,198.21c-.79.5-.6,2.02-2,1.53-.21-.07-.42-.81-.29-1.07.44-.87,1.06-1.53,2.29-.46Z"/>
  <path class="cls-1" d="M123.63,148.24c.61.75,1.24,1.35,1.16,1.47-.31.47-.83.83-1.33,1.13-.07.04-.71-.53-.68-.75.09-.52.43-1,.85-1.86Z"/>
  <path class="cls-1" d="M105.09,186.19c-.96.47-1.5.74-2.04,1-.16-.42-.44-.85-.43-1.27,0-.34.38-.66.59-.99.5.34,1.01.68,1.88,1.26Z"/>
  <path class="cls-1" d="M287.93,287.92c.89-.12.56-1.93,1.87-1.06.29.19.42,1.17.19,1.47-.58.77-1.3.57-2.06-.41Z"/>
  <path class="cls-1" d="M77.33,46.07c.62-.34,1.23-.68,1.85-1.02.15.06.3.12.45.18-.16.57-.16,1.49-.51,1.64-.5.22-1.23-.12-1.87-.23.02-.19.05-.39.07-.58Z"/>
  <path class="cls-1" d="M207.25,243.1c.7-.54,1.09-1.05,1.53-1.11.3-.04.68.56,1.02.88-.33.35-.61.9-1,.98-.36.07-.82-.37-1.55-.75Z"/>
  <path class="cls-1" d="M176.82,140.6c.57.34,1.09.6,1.07.64-.51,1.24.47,1.91,1.28,2.74-1.29.35-2.13.53-1.96-1.09.07-.63-.21-1.29-.39-2.29Z"/>
  <path class="cls-1" d="M128.57,292.3l.93,1.62c-.48.26-.96.53-1.44.79-.12-.71-.24-1.42-.36-2.12l.87-.29Z"/>
  <path class="cls-1" d="M154.17,159.52c-.65.55-1.04.88-1.44,1.22-.32-.41-.81-.79-.9-1.25-.06-.28.55-1.01.75-.97.48.1.89.52,1.59,1Z"/>
  <path class="cls-1" d="M305.83,274.61c.39-.41.73-.92,1.2-1.17.15-.08.74.48.99.85.11.16-.11.78-.25.81-.57.09-1.17.04-1.75.04l-.19-.52Z"/>
  <path class="cls-1" d="M81.75,261.77c.59.63,1.73.77,1.26,1.88-.11.25-1.04.46-1.32.27-.93-.61-.53-1.35.06-2.16Z"/>
  <path class="cls-1" d="M155.13,127.75c-.44.45-.8.82-1.24,1.28-.07-.1-.3-.37-.47-.68-.18-.34-.3-.71-.45-1.07q1.58-.71,2.16.47Z"/>
  <path class="cls-1" d="M125.8,275.17c.55.25,1.1.51,1.65.76-.29.48-.58.97-.87,1.45-.44-.49-.88-.99-1.31-1.48.18-.25.35-.49.53-.74Z"/>
  <path class="cls-1" d="M184.35,153.07c.44.49.78.88,1.44,1.62-.88.23-1.8.7-2.01.48-.71-.72-.37-1.47.58-2.1Z"/>
  <path class="cls-1" d="M66.65,162.32c-1.33-.27-2.11-.5-1.9-1.52.07-.33.68-.54,1.05-.81.24.66.48,1.32.85,2.33Z"/>
  <path class="cls-1" d="M240.86,235.62c.26-.44.45-.97.82-1.27.15-.12.81.16,1.05.42.18.2.17.92.05.97-.48.22-1.04.27-1.56.39-.12-.17-.23-.34-.35-.51Z"/>
  <path class="cls-1" d="M18.76,191.08c.19-.68.37-1.35.56-2.03.38.22,1.11.51,1.08.64-.13.6-.47,1.16-.73,1.73l-.91-.34Z"/>
  <path class="cls-1" d="M38.7,37.91c-.71-.38-1.87-.33-1.3-1.56.13-.28.88-.58,1.11-.45.79.45,1.07,1.14.19,2.01Z"/>
  <path class="cls-1" d="M98.7,63.55c.58.15,1.17.3,1.75.45-.22.48-.45.96-.67,1.44-.47-.37-.93-.75-1.4-1.12.11-.26.22-.51.33-.77Z"/>
  <path class="cls-1" d="M80.6,183.84c-.25.7-.47,1.29-.68,1.88-.37-.23-.97-.39-1.05-.69-.24-.88.15-1.41,1.73-1.19Z"/>
  <path class="cls-1" d="M175.63,178.96c-.54.51-.88.82-1.21,1.13-.32-.36-.76-.68-.91-1.11-.06-.15.55-.75.88-.78.33-.03.7.4,1.24.76Z"/>
  <path class="cls-1" d="M76.22,94.69c-.84-.7-1.09-1.41-.45-2.14.13-.15.93.03,1.16.29.81.9-.13,1.26-.71,1.85Z"/>
  <path class="cls-1" d="M141.22,306.8c.44.67.79,1.08.97,1.56.06.15-.43.7-.48.67-.51-.23-.98-.56-1.47-.85.26-.36.52-.73.98-1.38Z"/>
  <path class="cls-1" d="M182.52,313.2c-.4.11-.9.43-1.19.29-.5-.24-.87-.76-1.3-1.16.29-.25.61-.73.86-.69.43.06.81.44,1.22.68.14.29.27.59.41.88Z"/>
  <path class="cls-1" d="M276.42,243.4c.6.04,1.2.09,1.79.13-.07.43-.15.87-.22,1.3-.59-.16-1.18-.33-1.77-.49.07-.31.13-.63.2-.94Z"/>
  <path class="cls-1" d="M151.86,292.61c-.51.4-.87.68-1.22.96-.24-.36-.66-.72-.66-1.08,0-.3.49-.6.76-.91.33.3.65.59,1.12,1.02Z"/>
  <path class="cls-1" d="M248.76,262.59l2.69-.44c.07.19.14.38.21.57-.65.3-1.28.69-1.96.86-.31.07-.72-.3-1.09-.47.05-.17.1-.34.15-.52Z"/>
  <path class="cls-1" d="M116.88,238.52c-.77.69.45,1.96-1.04,2.11-.23.02-.71-.46-.74-.75-.13-1,.45-1.43,1.78-1.36Z"/>
  <path class="cls-1" d="M344.15,156.96c.12.86.22,1.58.32,2.29-.38-.08-.96-.04-1.1-.27-.4-.67-.66-1.45.78-2.02Z"/>
  <path class="cls-1" d="M103.34,100.9c.09-.81.15-1.42.22-2.03.42.11,1.08.09,1.21.34.39.81-.02,1.36-1.43,1.69Z"/>
  <path class="cls-1" d="M95.65,98.23c.16.57.33,1.15.49,1.72-.1.12-.19.24-.29.35-.45-.24-1.16-.41-1.27-.76-.12-.4.3-.96.48-1.46.2.05.4.09.6.14Z"/>
  <path class="cls-1" d="M147.93,182.6c-.42-.64-1.66.3-1.67-.96,0-.28.69-.57,1.07-.86.36.47.72.94,1.08,1.42l-.48.4Z"/>
  <path class="cls-1" d="M200.05,121.04c0-.38-.11-1.04.02-1.08.51-.2,1.13-.37,1.62-.22.34.1.52.73.89,1.3-.99,0-1.71-1.39-2.3.49-.07-.16-.15-.33-.22-.49Z"/>
  <path class="cls-1" d="M90,271.73v-2.48c1.78,1.14,1.79,1.31,0,2.48Z"/>
  <path class="cls-1" d="M157.03,26.23c.25.11.45.19.72.31-.15.11-.32.28-.34.26-.42-.33-.96-.62-1.17-1.06-.15-.3.17-.82.27-1.25.36.19.77.33,1.04.6.09.08-.16.53-.27.8-.05.12-.15.22-.24.35Z"/>
  <path class="cls-1" d="M93.06,150.8c-.17-.53-.4-1.04-.47-1.58-.01-.09.65-.27,1.01-.4.1.59.2,1.18.29,1.77-.28.07-.56.14-.84.21Z"/>
  <path class="cls-1" d="M138.64,266.25c-.1-.58-.26-1.17-.23-1.75,0-.11.76-.18,1.18-.27-.05.66-.09,1.32-.14,1.98l-.8.04Z"/>
  <path class="cls-1" d="M245.94,103.54c-.68.41-1.16.7-1.84,1.12-.09-.24-.48-.8-.34-1.04.21-.35.8-.64,1.24-.66.35-.01.71.43.94.58Z"/>
  <path class="cls-1" d="M395.8,207.57l1.46-.8c.2.39.39.79.59,1.18-.57.15-1.14.3-1.71.45-.11-.28-.23-.56-.34-.84Z"/>
  <path class="cls-1" d="M341.61,207.57q1.65,2.11.64,2.83c-.22-.99-.43-1.91-.64-2.83Z"/>
  <path class="cls-1" d="M70.31,171.42c-.62.37-.95.69-1.32.73-.23.03-.51-.37-.76-.57.3-.36.55-.79.93-1.02.12-.07.57.41,1.15.86Z"/>
  <path class="cls-1" d="M152.08,33.85c-.54.77-1.05,1.49-1.57,2.22-1.09-1.39-.89-1.68,1.57-2.22Z"/>
  <path class="cls-1" d="M145.07,263.81c-.98-.73-1.59-1.39-.05-2.17.8.67,1.16,1.33.05,2.17Z"/>
  <path class="cls-1" d="M294.7,278.8c.51-.19,1.02-.47,1.54-.52.15-.01.35.67.53,1.03-.6.14-1.21.27-1.81.41l-.26-.92Z"/>
  <path class="cls-1" d="M91.52,307.39c-.6.44-.94.88-1.2.83-.35-.07-.63-.5-.94-.78.26-.28.5-.79.77-.8.35-.01.71.36,1.37.75Z"/>
  <path class="cls-1" d="M195.41,296.94c-.79-.41-1.2-.62-1.8-.93.37-.43.65-.84,1.03-1.13.09-.07.67.25.73.48.12.42.04.9.04,1.59Z"/>
  <path class="cls-1" d="M95.63,209.96c-.27-.34-.67-.72-.61-.8.22-.33.58-.78.89-.78.34,0,.69.44,1.03.69-.37.25-.74.51-1.3.89Z"/>
  <path class="cls-1" d="M189.3,253.61c-.04-1.55.63-1.76,1.48-1.69.28.02.54.25.8.39-.67.39-1.35.77-2.28,1.31Z"/>
  <path class="cls-1" d="M149.23,288.02c.51.63.84,1.04,1.18,1.45-.28.19-.67.61-.84.53-.41-.18-.78-.54-1.02-.93-.07-.12.33-.54.68-1.06Z"/>
  <path class="cls-1" d="M82.4,193.57c.33.55.74.92.69,1.22-.06.34-.48.69-.83.86-.13.06-.76-.46-.72-.57.16-.46.48-.87.87-1.51Z"/>
  <path class="cls-1" d="M65.68,179.27c.32-.66.63-1.33.95-1.99.19.1.56.25.55.3-.19.69-.42,1.37-.65,2.04-.28-.12-.56-.24-.84-.36Z"/>
  <path class="cls-1" d="M255.25,196.77c-.29,1.13-.52,1.99-.71,2.73-.23-.2-.67-.61-1.26-1.14.54-.44,1.15-.93,1.97-1.58Z"/>
  <path class="cls-1" d="M116.4,116.25c-.5.45-.86.97-1.05.91-.37-.11-.65-.54-.97-.84.28-.27.54-.7.85-.75.28-.04.63.34,1.16.68Z"/>
  <path class="cls-1" d="M108.5,33.14c-.67-.37-1.24-.68-1.8-.99.3-.22.58-.6.9-.64.84-.09,1.3.28.91,1.63Z"/>
  <path class="cls-1" d="M244.61,227.92c-.46.84,1.34,1.23.28,2.14-.16.14-.92-.07-.94-.18-.1-.64-.05-1.29-.05-1.94.23,0,.47,0,.7-.01Z"/>
  <path class="cls-1" d="M375.62,202.07c-.16.2-.23.35-.34.41-.61.32-1.22.61-1.84.91.24-.6.47-1.21.72-1.84.62.22,1,.36,1.45.52Z"/>
  <path class="cls-1" d="M200.88,232.36c-2.46,1.12-1.8-1.08-2.54-1.63.75.48,1.51.97,2.54,1.63Z"/>
  <path class="cls-1" d="M40.09,197.1c.04-.53-.02-1.1.18-1.55.06-.14.84.03,1.29.06-.32.54-.64,1.08-.96,1.63-.17-.04-.34-.09-.51-.13Z"/>
  <path class="cls-1" d="M124.77,52.83c-.24-.45-.47-.91-.88-1.7h1.68c-.09.58-.19,1.17-.28,1.75-.17-.02-.34-.03-.52-.05Z"/>
  <path class="cls-1" d="M97.42,93.58c-.44-.95-.69-1.48-1-2.14.6-.12,1.08-.21,1.89-.37-.32.9-.53,1.48-.89,2.51Z"/>
  <path class="cls-1" d="M171.9,268.14c-.7-1.12-1.2-1.91-1.73-2.74,1.7.17,1.72.2,1.73,2.74Z"/>
  <path class="cls-1" d="M126.22,133.17c-.64.3-1.01.62-1.22.54-.36-.15-.63-.54-.93-.83.25-.22.55-.67.73-.62.4.1.73.45,1.42.92Z"/>
  <path class="cls-1" d="M42.67,46.92h-1.94c.53-.76.87-1.25,1.21-1.74.14.05.28.1.42.15.09.48.19.96.31,1.59Z"/>
  <path class="cls-1" d="M160.48,91.76l-1.71-.86c.33-.21.72-.64.97-.58.42.11.75.55,1.12.85-.13.2-.25.39-.38.59Z"/>
  <path class="cls-1" d="M165.02,137.5c-1.32-.89-1.28-1.09.52-2.46-.11.35-.26.68-.33,1.04-.09.41-.12.83-.19,1.42Z"/>
  <path class="cls-1" d="M187.18,121.95c-.27-.93-1.57.46-1.57-.91,0-.17.65-.52.9-.46.4.11.72.5,1.07.78-.13.19-.27.39-.4.58Z"/>
  <path class="cls-1" d="M116.72,56.15c.63.04,1.37.1,2.26.16-.84.61-1.48,1.09-2.12,1.55-.03-.35-.07-.92-.14-1.71Z"/>
  <path class="cls-1" d="M110.1,270.97c-.14-.39-.27-.79-.48-1.38.47-.09.9-.27,1.3-.2.18.03.41.55.39.83-.04.46-.28.91-.43,1.36-.26-.2-.51-.4-.77-.61Z"/>
  <path class="cls-1" d="M255.52,189.66c.44-.52.74-.87,1.04-1.23.4.47.81.95,1.21,1.42-.08.1-.17.2-.25.3-.56-.14-1.12-.28-2.01-.49Z"/>
  <path class="cls-1" d="M86.16,182.53c.15-.46.31-.93.46-1.39.38.15.77.3,1.15.45-.31.44-.63.88-.94,1.32-.22-.12-.44-.25-.66-.37Z"/>
  <path class="cls-1" d="M122.9,313.9c-.39-.46-.63-.75-.87-1.04.31-.23.64-.65.93-.63.26.02.59.49.69.83.05.15-.39.45-.76.84Z"/>
  <path class="cls-1" d="M127.41,136.23c-.1.5-.16,1.03-.35,1.49-.03.08-.66-.09-1.01-.14.2-.51.39-1.03.59-1.54l.77.19Z"/>
  <path class="cls-1" d="M35.32,231.67c.36.4.71.79,1.41,1.57-.83-.04-1.48.11-1.71-.13-.26-.27-.16-.9-.21-1.37.17-.02.34-.04.51-.06Z"/>
  <path class="cls-1" d="M68.6,179.5c-.39-.93-.76-1.81-1.15-2.73q1.62.54,1.15,2.73Z"/>
  <path class="cls-1" d="M371.15,168.32c-.64.4-1.28.79-1.92,1.19-.11-.08-.21-.16-.32-.24.12-.34.14-.87.36-.98.52-.26,1.14-.31,1.73-.45.05.16.1.33.15.49Z"/>
  <path class="cls-1" d="M239.84,206.55c-.41.03-.83.07-1.24.1q-.11-1.42,1.24-1.43v1.34Z"/>
  <path class="cls-1" d="M40.55,241.01c.19-.47.37-.94.56-1.42.28.14.8.34.79.4-.12.47-.35.91-.55,1.36-.27-.11-.53-.23-.8-.34Z"/>
</svg>