<?xml version="1.0" encoding="UTF-8"?>
<svg id="Isolation_Mode" data-name="Isolation Mode" xmlns="http://www.w3.org/2000/svg" viewBox="0 0 386.39 388.02">
  <defs>
    <style>
      .cls-1 {
        fill: #bb9a86;
      }
    </style>
  </defs>
  <path class="cls-1" d="M0,155.89c.68.21,1.43.7,2.01.54.63-.17,1.47-.92,1.51-1.47.04-.55-.68-1.45-1.27-1.67-.62-.23-1.75-.41-1.94.89-.02.13-.2.24-.31.36v1.35Z"/>
  <path class="cls-1" d="M238.08,108.92c.12,2.33,3.2,3.15,1.97,5.7-1.48-.73-2.84-1.4-4.41-2.18-2.92,1.18-6.75-.93-7-4.68-.15-2.31.34-2.92,2.61-3.58,1.03-.3,2.13-.39,3.12-.79,1.63-.66,3.3-.07,3.71,1.64.23.95.72,1.32,1.57,1.31,2.47-.02,4.04,1.2,4.81,3.14-.56,1.08-1,1.94-1.65,3.21-.59-3.02-2.9-2.62-4.72-3.78ZM235.62,108.03c.23-.38.65-.81.56-.95-.59-.99-1.27-1.91-1.93-2.86l-.36.28c.53,1.09,1.07,2.18,1.73,3.53Z"/>
  <path class="cls-1" d="M208.7,97.51c-1.87.35-3.52-.94-4.13-2.51-.54-1.4-.14-3.17-.04-4.77.02-.25.61-.57,1-.68,1.27-.37,2.65-.46,3.81-1.02,1.81-.87,2.89.4,3.22,1.47.44,1.4.92,1.24,1.96.99,1.46-.35,3.88,1.11,4.01,2.7.07.82-.89,1.89-1.65,2.53-.47.39-1.48.35-2.17.2-.9-.2-1.73-.7-2.47-1.02-1.27.8-2.32,1.9-3.54,2.12ZM211.21,92.32c-.52-.96-.98-1.04-1.16-.14-.59-.37-1.29-1.14-1.74-1.02-1.12.32-.77,1.14-.31,1.98.2.35-.12.99-.28,2.01.92-.36,1.63-.63,2.34-.92.09-.04.15-.26.19-.25,2.48.58,1.34-1.64,2.04-2.43l-.34-.24c-.24.32-.48.65-.74,1Z"/>
  <path class="cls-1" d="M186.04,76.85c.28-.48.55-.97.95-1.67-1.45.95-4.1.44-5.78-.98-1.34.6-1.68,1.39-.71,2.68.29.39.3,1.17.15,1.69-.54,1.91.43,3.4,2.41,3.55,1.93.14,3.45-.54,4.31-2.43,1.59,2.14,4.03,2.37,5.82.72,1.26-1.16,1.35-2.11.3-3.43-.17-.22-.45-.39-.53-.63-.21-.66.21-1.79-1.05-1.67-1.25.12-2.68-.29-3.56,1.26-.36.63-1.3.93-1.97,1.38-.11-.16-.23-.32-.34-.47Z"/>
  <path class="cls-1" d="M200.55,98.74c.98-.54,2.04-1.45,1.83-3.15-.25-2.04-1.7-2.95-4.18-2.63-.66.09-1.32.26-1.98.3-2.47.16-4.09,2.03-3.55,4.45.27,1.2.87,2.43,1.65,3.39,1.64,2,5.18,1.45,6.34-.89.14-.28-.04-.72-.11-1.48Z"/>
  <path class="cls-1" d="M205.74,173.93c-1.41,2.05-.51,3.53,2.26,3.93,1.48-2.06,1.3-3.42-.62-4.61.44-.38.87-.77,1.42-1.25.18.34.36.67.63,1.17.3-.78.63-1.4.76-2.05.11-.58-.08-1.21-.02-1.81.16-1.79-1.79-3.51-3.58-3.61-2.02-.11-3.46.21-4.07,2.38-.53,1.85-.16,3.3,1.38,4.53.56.45,1.18.84,1.86,1.32Z"/>
  <path class="cls-1" d="M82.23,98.81c0-1.28.57-2.56-.82-3.58-1.28-.94-2.53-1.74-4.23-1.61-2.3.18-3.93,1.64-3.77,3.56.08.92-.13,2.21.38,2.68,1.03.93,2.41,1.59,3.75,2.05,1.72.58,2.98-.69,4.23-1.6.34-.24.31-.99.45-1.5Z"/>
  <path class="cls-1" d="M217.64,122.78c-.36-1.26.7-1.84,1.58-1.75,1.15.12,1.29-.75,1.88-1.21.75-.58,1.57-1.09,2.41-1.52.35-.18.88-.21,1.25-.08,2.31.77,4.34,1.86,4.38,4.6-.37.43-.8.78-1.05,1.24-1.15,2.07-2.8,2.92-4.99,2.08-1.1-.42-1.96-1.48-3.19-2.46-.84.49-1.86.48-2.26-.9ZM226.39,124.68q.91-1.56-1.41-2.4c-.11.1-.22.21-.34.31.57.68,1.14,1.36,1.74,2.09Z"/>
  <path class="cls-1" d="M79.55,253.62c-.44,1.25-.94,2.12-1.01,3.01-.08.96,1.18,1.42,2.06.95,1.8-.95,3.57-2,5.46-2.7,1.27-.47,1.4-1.34,1.11-2.19-.74-2.18-2.38-4.19-5.17-3.38-.34.1-.74.01-1.11.02-1.46.05-2.56,1.85-1.92,3.13.26.53.53,1.06.57,1.15Z"/>
  <path class="cls-1" d="M193.74,102.78c.46.14.95.7,1.14,1.18.69,1.71-.7,4.71-2.43,5.42-2.48,1.02-2.89.95-4.39-.65-.52-.55-1.27-.96-1.6-1.59-.41-.78-.82-1.8-.65-2.59.29-1.33,2.55-2.52,4.67-2.43.67.13,1.99.29,3.25.66ZM193.56,105.84c-.84-.55-1.47-1.04-2.16-1.37-.16-.07-.56.38-.85.58.69.84,1.39,1.68,2.08,2.52.14-.12.28-.25.43-.37-.21-.25-.42-.49-.65-.77.31-.16.61-.32,1.15-.6Z"/>
  <path class="cls-1" d="M330.12,186.91c-.33-3.08-1.27-3.78-4.13-3.31-.44.07-.87.19-1.3.27-2.82.55-3,.76-3.09,3.68,0,.11,0,.22,0,.34-.04,1.01-.48,2.61-.03,2.93,1.17.82,2.71,1.2,4.15,1.53,1.14.26,3.12-1.72,3.5-3.47-.92.09-1.76.18-2.73.27-.53-.37-1.23-.85-1.93-1.34.5-1.93.72-2.01,2.5-1.47.94.29,1.94.37,3.07.57Z"/>
  <path class="cls-1" d="M239.06,93.06c.14-2.44-.56-4.12-1.82-4.4-.98-.22-3.03,1.06-3.45,2.17-.45,1.18.5,2.19,3.46,3.64-.29.21-.5.43-.76.55-1.74.78-1.52,2.6-2.06,4-.06.16.49.77.82.82,1.46.24,3.25-.85,3.92-2.26.36-.76.75-1.5,1.12-2.25.74-1.52.44-2.05-1.24-2.25Z"/>
  <path class="cls-1" d="M89.44,156.63c.76-.07,1.24-.11,1.72-.16-.07-1.4.53-1.92,1.93-1.7-1.44-2.17-3.16-2.2-4.54-.07-.66,1.02-1.36,2.03-1.9,3.12-.23.46-.27,1.2-.06,1.65,1.32,2.82,6.06,3.3,7.96.86.63-.82.45-3.08-.53-4.44-.46.89-.86,1.67-1.35,2.63,0-.35,0-.54,0-.5-.97.12-1.95.28-2.92.27-.11,0-.21-1.01-.33-1.66Z"/>
  <path class="cls-1" d="M258.68,197.63c-.92-1-1.77-1.83-2.49-2.77-.24-.31-.11-.89-.15-1.35.51-.02,1.02-.1,1.52-.06.39.03.77.2,1.13.3.4.63.87,1.36,1.39,2.17,1.68-2.72,1.12-4.18-1.76-4.98-.78-.22-1.6-.5-2.39-.47-1.86.08-3.8,2.76-3.39,4.62.18.85.38,1.8.88,2.46,1.46,1.92,3.43,1.8,5.28.08Z"/>
  <path class="cls-1" d="M237.48,65.75c.55,1.8,2.09,2.77,3.81,3.15,1.48.33,2.04-1.19,2.75-2.21.4-.58.9-1.12,1.14-1.76.27-.7.65-1.85.34-2.15-.56-.55-1.66-.96-2.41-.8-2.28.48-4.16,1.77-5.64,3.77Z"/>
  <path class="cls-1" d="M208.51,84.44c.13-.75.23-1.32.35-2.03,1.2.7,2.5,1.6,3.57.14.23-.31-.36-1.66-.9-1.98-.99-.59-2.18-.68-2.63,1.08-.22-2.7-2.15-3.8-4.04-4.92-.96-.57-1.48-.35-1.44.83.09,2.82.29,5.1,5.11,6.88Z"/>
  <path class="cls-1" d="M296.27,187.16c.92-.32,1.78-.48,2.45-.92.4-.26.51-.97.75-1.49-1.18-.46-2.4-1.38-3.52-1.26-1.71.18-.61,1.86-.97,2.93-.45.04-1.08-.06-1.57.16-2.16.93-2.43,1.99-1.07,4.01.54.8,1.16,1.56,1.78,2.39,1.18-1.92,3.69-3.08,2.15-5.83Z"/>
  <path class="cls-1" d="M192.25,121.58c-1.84,0-3.96,1.75-4.08,3.2-.15,1.65,1.48,2.9,3.14,3.03,1.52.11,3.82-1.84,3.78-3.11-.07-2.16-.94-3.12-2.83-3.11Z"/>
  <path class="cls-1" d="M130.18,189.79c2.26-.53,4,.52,5.82,1.39.43.21,1.02,1.03.91,1.27-.32.68-.87,1.34-1.51,1.74-.67.42-1.61.41-2.32.79-2.32,1.26-4.69-.18-4.69-2.97-.33-1.42.35-1.89,1.78-2.23ZM131.76,193.34c-.48.13-.78.22-1.07.3.01.07.03.13.04.2h2.2c-.06-1.13-.12-2.14-.18-3.27-.85.48-1.61.9-2.51,1.41.59.53.99.89,1.52,1.37Z"/>
  <path class="cls-1" d="M78.63,127.22c-.17,1.51-.28,2.75-.49,3.98-.03.16-.61.39-.86.32-.32-.1-.77-.46-.78-.73-.04-.89.09-1.78.18-3.06-.6.08-1.5-.06-2.01.32-.62.47-1.22,1.28-.58,2.29.41.65.66,1.4,1.04,2.07,1.2,2.09,2.27,2.34,4.53,1.13.99-.53,2.28-3.56,1.61-4.35-.74-.89-1.91-1.43-2.66-1.95Z"/>
  <path class="cls-1" d="M253.04,172.23c-.95-.3-1.9-1.64-3.17-.4-.86.84-2.57.4-2.95,1.98-.18.75-.84,1.78-.56,2.15.61.81,1.6,1.53,2.58,1.83.96.29,2.11-.69,3.16.22.11.1.78-.22.94-.49.11-.19-.15-.84-.37-.92-1.51-.54-1.16-1.88-1.12-2.89.02-.49.93-.94,1.48-1.46Z"/>
  <path class="cls-1" d="M158.29,148.12c-2.31-1.89-3.24-1.6-3.81.27-.11.37-.23.74-.38,1.1-1.21,2.97-1.08,3.68,1.74,4.78.92.36,2.34-.19,3.38-.66.95-.42,1.77-1.22,1.08-2.56-.23-.44-.16-1.04-.21-1.36-1.06.62-2.02,1.27-3.06,1.75-.32.15-1.13-.05-1.22-.28-.16-.41-.13-1.17.15-1.43.67-.64,1.54-1.08,2.33-1.61Z"/>
  <path class="cls-1" d="M90.47,120.78c2.17,2.23,2.21,2.28,5.07.68.71-.4,1.64-1.34,1.59-1.97-.06-.86-.79-1.88-1.53-2.44-.77-.57-1.65-.61-2.83.06-1.65.93-2.32,1.98-2.25,3.72l-.05-.05Z"/>
  <path class="cls-1" d="M307.02,173.66c0,1.28.07,1.91,1.8,1.48,1.44-.36,3.02-.14,3.9-1.63.28-.47.5-1.32.27-1.67-.76-1.13-1.16-2.96-2.96-2.7-.91.13-1.96.86-2.47,1.64-.5.75-.39,1.91-.54,2.89Z"/>
  <path class="cls-1" d="M37.74,121.4c-.04-.45,0-1.27-.15-1.3-.63-.15-1.49-.33-1.93-.02-1.06.73-1.99,1.67-2.86,2.63-.9,1,.16,3.81,1.68,4.35.8.28,1.74.47,2.57.34,1.91-.3,2.28-1.09,2.25-4.25-1.28.5-2.51.98-3.71,1.45-1.31-1.65-1.27-1.87.48-2.34-.36-.32-.67-.6-.99-.87.03-.15.06-.29.1-.44.71.13,1.42.26,2.57.47Z"/>
  <path class="cls-1" d="M106.34,15.46c-1.03.37-2.12.79-3.23,1.14-.31.1-.94.08-.99-.05-.42-1.04-.92-2.11-1.01-3.21-.07-.77.45-1.6.76-2.56-.36.16-.54.25-.72.32-3.52,1.35-3.78,1.92-2.44,5.34.43,1.1,3.61,2.34,5.28,2.07,1.17-.19,2.26-1.7,2.35-3.05Z"/>
  <path class="cls-1" d="M72.01,160.96c.02-1.91-.36-2.33-2.12-2.35-2.58-.02-3.87.84-3.85,2.57,0,.92,2.08,3.08,2.93,3.05,1.34-.05,3.03-1.86,3.04-3.27Z"/>
  <path class="cls-1" d="M238.69,79.07c-.09-2.21-1.07-3.22-3.46-2.73-.95.2-1.97,1.72-2.28,2.82-.34,1.2,1.9,2.99,3.24,2.95,1.47-.04,2.56-1.38,2.5-3.05Z"/>
  <path class="cls-1" d="M82.08,7.37c.79-.41,1.77-.66,2.3-1.28.49-.58.94-2,.65-2.3-.88-.89-2.07-1.71-3.27-1.96-.73-.16-2.07.56-2.47,1.26-1.07,1.85.4,3.9,2.8,4.29Z"/>
  <path class="cls-1" d="M120.63,342.21c-.24,1-.42,2.03-.77,3-.1.29-.66.58-1.01.58-.23,0-.67-.51-.67-.8,0-.96.16-1.92.26-2.88-1.99.11-2.42.71-1.92,2.62.13.48.23.97.38,1.45.58,1.85,1.79,2.41,3.81,1.78.99-.31,2.52-2.94,2.08-3.88-.4-.87-1.1-1.6-1.66-2.39-.17.17-.34.34-.51.51Z"/>
  <path class="cls-1" d="M69.01,118.67c-2.46-.38-4.62.26-6.55,1.4-.49.29-.36,1.62-.56,2.72,1.62-.97,2.78-.86,3.89.37.76.84,2.41,0,2.85-1.5.27-.92.25-1.92.38-2.99Z"/>
  <path class="cls-1" d="M264.28,80.17c-1.62-.01-2.72,1.13-2.67,2.8.03,1.02,2.16,2.66,3.48,2.67,1.11,0,2.23-1.32,2.22-2.63-.02-1.8-1.11-2.83-3.02-2.84Z"/>
  <path class="cls-1" d="M360.07,167.38c1.04,0,2.52-1.56,2.5-2.62-.04-2.11-.74-2.82-2.74-2.81-1.34,0-3.14,1.64-3.06,2.77.09,1.12,2,2.67,3.3,2.66Z"/>
  <path class="cls-1" d="M178.13,87.99c-.01,1.01,1.53,2.47,2.67,2.53,1.25.06,2.73-1.08,2.69-2.08-.06-1.97-1.22-3.37-2.85-3.44-1.22-.05-2.5,1.46-2.52,2.98Z"/>
  <path class="cls-1" d="M214.44,162.74c-1.46-1.75-5.69-2.97-7.64-2.08-.27.12-.48,1.24-.26,1.48,2.24,2.45,5.25,3.17,7.9.6Z"/>
  <path class="cls-1" d="M188.68,161.68c-1.02-.54-1.94-1.02-2.84-1.55-.04-.03.16-.67.24-.67.94.02,1.88.1,3.26.2-.4-.71-.88-2.03-1.16-1.99-1.57.23-3.42.4-4.52,1.35-1.07.93.02,3.38,1.45,4.13,1.49.79,2.37.39,3.57-1.47Z"/>
  <path class="cls-1" d="M98.35,323.03c-.41.55-.89,1.06-1.21,1.65-.27.5-.61,1.21-.45,1.64.2.51.86,1.01,1.41,1.15.38.1,1.11-.28,1.36-.66.81-1.25,1.55-2.55,2.13-3.91.22-.53.17-1.52-.19-1.88-.45-.44-1.4-.73-2.01-.57-.72.18-1.8.54-1.39,1.81.05.15,0,.33,0,.5.11.09.23.18.34.27Z"/>
  <path class="cls-1" d="M229.19,95.54c-.08-1.84-.96-2.66-3.23-2.32-.85.13-1.92,1.22-2.2,2.09-.38,1.16,1.6,3.03,2.76,2.97,1.58-.08,2.74-1.27,2.67-2.74Z"/>
  <path class="cls-1" d="M199.77,227.06c-.73-.37-1.43-.85-2.21-1.08-.41-.12-1.1.04-1.4.33-1.8,1.78-1.67,5.02.47,6.29.81.48,2.22-.04,3.35-.11v-.57c-.98-.42-1.97-.84-2.78-1.18.19-.99.36-1.86.55-2.86.78.11,1.42.2,2.11.3-.02-.39-.04-.77-.06-1.15l-.04.02Z"/>
  <path class="cls-1" d="M162.62,82.14c-.78.68-1.57,1.36-2.63,2.28-.27-.4-.47-1.05-.82-1.15-1.17-.33-.94-.98-.64-1.79.12-.33.02-.73.02-1.43.66-.11,1.66-.27,2.66-.43-.04-.18-.08-.36-.12-.55-1.01-.54-1.95-.77-2.68.53-.18.33-.65.51-.8.84-.46,1-2.67,1.33-1.11,3.14,1.85,2.15,3.59,2.85,5.3,1.53.72-.55.89-1.83,1.31-2.78-.16-.07-.32-.13-.48-.2Z"/>
  <path class="cls-1" d="M139.38,95.92c1.88,0,3.2-.91,3.14-2.15-.05-1.15-1.64-2.32-3.15-2.32-1.25,0-2.95,1.12-2.95,1.95,0,1.31,1.42,2.52,2.96,2.52Z"/>
  <path class="cls-1" d="M241.82,127.91c2.05-.08,2.67-.75,2.57-2.73-.08-1.54-1.04-2.29-2.85-2.24-1.45.03-2.19.93-2.11,2.55.09,1.82.76,2.49,2.4,2.43Z"/>
  <path class="cls-1" d="M260.97,183.59c.03,1.23,1.99,2.96,3.28,2.45.88-.35,1.85-1.7,1.86-2.61.02-.84-1.07-2.24-1.89-2.43-1.71-.39-3.28,1.12-3.25,2.6Z"/>
  <path class="cls-1" d="M59.07,99.67c-1.91-.02-3.15.84-2.71,2.17.36,1.09,1.44,2.18,2.49,2.74.89.48,2.7-1.71,2.63-3.2-.08-1.5-.96-2.15-2.41-1.72Z"/>
  <path class="cls-1" d="M357.59,209.48c.45-.81.91-1.61,1.47-2.61-.59-1.96-2.1-3.25-4.43-3.37-.64-.03-1.31.51-1.97.79.28.6.42,1.35.88,1.75.61.53,1.42.96,2.21,1.1,1.33.23,1.84.84,1.39,2.25.15.03.3.06.45.08Z"/>
  <path class="cls-1" d="M154.03,208.73c.3.93.44,1.97.97,2.75.29.44,1.53.79,1.82.55.53-.44,1.02-1.4.93-2.05-.22-1.52-3.8-4.43-5.31-4.53-.33-.02-.9.2-.96.41-.09.34.04.94.29,1.13.84.63,1.77,1.12,2.67,1.66-.13.02-.27.05-.4.07Z"/>
  <path class="cls-1" d="M77.4,269.56c-.02-1.48-1.08-2.57-2.45-2.53-.86.03-2.81,2.12-2.44,2.86.41.83,1.28,1.95,2.03,2.01,2.23.19,2.9-.54,2.87-2.34Z"/>
  <path class="cls-1" d="M288.84,124.5c-.02-1.38-1.05-2.01-2.08-1.81-1.12.21-3.22-.29-3.06,1.56.09,1.16,1.33,2.65,2.43,3.18,1.11.53,2.75-1.49,2.71-2.93Z"/>
  <path class="cls-1" d="M262.08,122.71c1.76.58,3.01,1.09,4.31,1.38,1.16.27,2.38.3,3.79.46-1.01-3.22-3.21-3.99-5.64-3.87-.85.04-1.64,1.31-2.47,2.03Z"/>
  <path class="cls-1" d="M290.05,106.21c1.45.36,1.97,3.3,4.32,1.63.8-.56,1.51-1.11,1.1-2.29-.46-1.34-1.6-1.65-2.75-1.75-1.48-.12-2.96,0-2.68,2.41Z"/>
  <path class="cls-1" d="M222.59,140.97c.34-1.44,2.3-2.41.9-4.13-.66-.82-1.64-1.62-2.71-.91-.79.52-1.81,1.5-1.79,2.26.03,2.05,2.04,2.08,3.6,2.78Z"/>
  <path class="cls-1" d="M209.25,128.84c1.72,1.35,3.16,2.39,4.45,3.58.25.23-.06,1.07-.11,1.63.13.14.27.29.4.43.27-1.02.53-2.04.8-3.05.3.35.6.7.9,1.05.46-2.7-1.15-4-3.3-4.55-.85-.22-1.96.54-3.15.91Z"/>
  <path class="cls-1" d="M139.14,153.23c-1.96,0-2.76.69-2.75,2.23,0,.93,1.58,2.53,2.48,2.51,1.07-.02,2.55-1.6,2.45-2.75-.12-1.36-.66-2.37-2.17-2Z"/>
  <path class="cls-1" d="M124.73,321.61c-.14-1.83-1.04-3.01-2.69-3.46-1.02-.28-1.99.14-2.18,1.25-.14.84-.17,1.98.29,2.6.95,1.3,1.97,1.12,4.58-.39Z"/>
  <path class="cls-1" d="M20.5,121.16c0-1.04-1.41-2.19-2.85-1.84-.81.2-2.09,1.44-1.98,1.92.26,1.07,1.11,2.5,2.02,2.78,1.49.44,2.8-1.17,2.8-2.86Z"/>
  <path class="cls-1" d="M192.92,214.42c.65-.38,1.91-.2,1.79-1.71-.2-2.42-.87-3.56-2.37-3.15-.94.26-1.92,1.37-2.32,2.33-.4.97,1.54,2.58,2.9,2.53Z"/>
  <path class="cls-1" d="M127.56,145.94c-.37-.73-.74-1.45-1.32-2.58-1.97-1.15-3.81.12-5.47,1.76-.33.32-.52,1.31-.3,1.55.35.38,1.16.61,1.67.48.9-.22,1.8-.65,2.54-1.2,1-.75,1.81-1.03,2.62.42.09-.14.17-.28.26-.43Z"/>
  <path class="cls-1" d="M100.73,296.31c-.09-.14.02.18.25.37,1.04.86,2.03,1.85,3.22,2.41.46.21,1.4-.62,2.12-.98-.33-.59-.59-1.24-1.01-1.76-.37-.48-.9-.84-1.37-1.24-.52-.44-1.02-1.22-1.57-1.25-1.18-.06-1.95.64-1.65,2.45Z"/>
  <path class="cls-1" d="M271.53,220.63c1.36,1.29,2.65,2.39,3.77,3.65.23.26-.17,1.09-.37,2.09.98-.76,2.18-1.23,2.36-1.95.23-.94-.04-2.33-.64-3.09-1.74-2.19-2.43-2.2-5.11-.7Z"/>
  <path class="cls-1" d="M70.29,148.78c1.4.16,2.18-.41,2.08-2.07-.09-1.48-1.06-2.59-2.44-2.57-1.02.01-2.25,1.47-2.22,2.64.03,1.38.8,2.01,2.58,1.99Z"/>
  <path class="cls-1" d="M111.83,318.87c-.59.49-1.11.92-2.01,1.66.32-1.19.52-1.9.84-3.08-1.02.22-2.5.21-2.63.62-.37,1.17-.64,2.77-.1,3.73.54.96,2.11,1.08,3.33.31,1.37-.87,1.39-1.97.57-3.24Z"/>
  <path class="cls-1" d="M196.21,151.12c-1.18-.02-2.24,1.16-2.26,2.52-.02,1.11,1.31,2.39,2.64,2.14.82-.15,2.03-.87,2.17-1.53.36-1.65-1.03-3.11-2.54-3.13Z"/>
  <path class="cls-1" d="M245.87,100.8c.04,2.27,2.94,4.16,4.84,3.35.42.91.83,1.83,1.21,2.65,1.82-1.98,2.68-5.19,1.62-7.2-.01,1.46-.39,2.47-1.84,2.62-.14.01-.31.13-.41.24-1.24,1.49-2.08,1.52-3.45.16-.64-.63-1.32-1.22-1.98-1.83Z"/>
  <path class="cls-1" d="M150.1,99.2c.33.55.57.96.77,1.28-.58.91-1.29,1.68-1.57,2.59-.12.38.61,1.14,1.1,1.55.92.76,2.7.52,3.23-.33.55-.89-.26-2.65-1.71-3.7.17-.43.35-.87.56-1.39h-2.37Z"/>
  <path class="cls-1" d="M197.67,145.43c.01.97,1.91,3.01,2.5,2.59.89-.64,1.71-1.66,2.06-2.68.33-.97-1.13-2.26-2.15-2.2-1.72.1-2.44.78-2.41,2.3Z"/>
  <path class="cls-1" d="M237.82,189.19c-2.81,1.89-4.06,2.22-6.56-1.54.5.81.9,1.7,1.51,2.41.65.77,1.48,1.38,2.4,2.21-.68.29-1.13.44-1.54.66-.49.27-1.34.6-1.34.91,0,.7.3,1.5.72,2.07.16.22,1.44.01,1.46-.12.38-2.28,1.97-3.81,3.25-5.53.12-.16.19-.39.22-.6.02-.15-.08-.31-.13-.48Z"/>
  <path class="cls-1" d="M79.19,66.29c1.66-.06,3.01-1.14,2.92-2.34-.09-1.31-1.48-2.64-2.73-2.19-.87.31-1.71,1.39-2.05,2.31-.35.93.98,2.26,1.87,2.22Z"/>
  <path class="cls-1" d="M57.2,232.26c.02-1.59-.84-2.52-2.31-2.18-.86.19-1.93,1.04-2.22,1.84-.43,1.19,1.34,2.78,2.86,2.72,1.66-.06,1.38-1.53,1.67-2.37Z"/>
  <path class="cls-1" d="M292.87,169.51c.45.75.86,1.34,1.16,1.98.13.28,0,.67-.01,1.01-.34-.08-.81-.06-.99-.28-.43-.5-.72-1.11-1.35-2.13-.12,1.11-.56,2.38-.23,2.63,1.01.77,2.31,1.51,3.52,1.55.96.04,1.62-2.27,1.25-3.52-.35-1.18-1.08-1.48-3.35-1.26Z"/>
  <path class="cls-1" d="M141.85,83.13c1.46.04,2.49-.95,2.55-2.45.04-1.16-1.04-2.26-2.56-2.01-.78.13-1.66,1.18-2,2.02-.39.97.98,2.42,2.01,2.44Z"/>
  <path class="cls-1" d="M236.41,157.7c-.44.54-1.72,1.57-1.54,2.01.44,1.09,1.39,2.18,2.43,2.76.87.49,2.02-.86,2.05-2.15.04-1.59-.87-2.54-2.94-2.62Z"/>
  <path class="cls-1" d="M128.73,112.98c.28-1.08-.3-1.82-1.39-2.15-1.18-.35-1.7.35-1.98,1.41-.34,1.28.57,1.41,1.38,1.5,1.18.12,2.2.34,2.48,1.9-.57.1-1.09.19-1.6.28,1.22,1.24,1.95.9,4.17-2.2-1.09-.26-2.01-.49-3.05-.74Z"/>
  <path class="cls-1" d="M49.12,92.11c0-1.29-1.25-2.77-2.32-2.42-.85.28-1.95,1.13-2.1,1.9-.33,1.64.52,2.61,1.69,2.56,2.12-.09,2.74-.56,2.74-2.04Z"/>
  <path class="cls-1" d="M155.85,119.52c.78-.79,1.98-1.45,2.25-2.39.39-1.38-1.21-2.9-2.67-2.48-.8.23-1.52,1.5-1.81,2.45-.28.9,1.02,2.09,2.23,2.42Z"/>
  <path class="cls-1" d="M231.09,228.83c1.03-.04,2.52-1.72,2.09-2.83-.32-.83-1.48-1.78-2.33-1.84-.69-.04-1.79,1.04-2.1,1.85-.36.95,1.45,2.85,2.33,2.82Z"/>
  <path class="cls-1" d="M266.58,89.17c-.43,1.31.18,3.37,1.42,3.88.34.14.78.22,1.12.13,1.02-.28,2.05-2.91,1.56-3.86-.67-1.3-1.3-1.29-2.27-.19-.23.26-1.02.04-1.83.04Z"/>
  <path class="cls-1" d="M141.5,23.62c-1.38-2.57-3.77-2.22-6.07-2.05-.28.02-.74.44-.75.7-.02.45.16,1.28.38,1.32,1.91.37,3.85.62,5.79.82.2.02.45-.54.65-.79Z"/>
  <path class="cls-1" d="M50.44,108.44c-.36.42-1.36,1.06-1.5,1.86-.29,1.67.71,2.59,2.6,2.6,1.52,0,1.56-1.3,1.67-2.38.12-1.3-.69-2.03-2.77-2.08Z"/>
  <path class="cls-1" d="M249.58,152.82c1.73-2.28,1.84-3.36.46-4.19-1.05-.64-3.05-.21-3.49.75-.6,1.32.17,2.22,3.03,3.44Z"/>
  <path class="cls-1" d="M96.46,271.72c-.37.99-.68,1.85-1,2.71-.64-.31-1.29-.62-1.98-.96.68-.74,1.21-1.31,1.75-1.9-1.23-.5-1.88.23-2.21,1.12-.39,1.06.68,3.56,1.45,3.8,1.18.38,2.9-.61,3.4-1.96.52-1.37.07-2.15-1.41-2.83Z"/>
  <path class="cls-1" d="M332.34,232.85c0,1.08,1.56,2.79,2.41,2.35.89-.46,1.6-1.6,2-2.6.33-.84-1.12-1.95-2.25-1.93-1.37.02-2.17.83-2.16,2.18Z"/>
  <path class="cls-1" d="M185.58,148.12c.65.54,1.45,1.43,2.46,1.96.66.34,2.66-1.53,2.32-2.09-.54-.91-1.32-1.98-2.23-2.3-1.2-.42-2.55.85-2.55,2.43Z"/>
  <path class="cls-1" d="M128.49,177.04c.86.61,1.74,1.71,2.59,1.68.75-.02,1.9-1.2,2.09-2.04.29-1.29-1.02-2.59-2.02-2.55-1.12.05-2.43,1.44-2.65,2.91Z"/>
  <path class="cls-1" d="M128.55,53c-.35-1.17-1.77-2.4-2.78-2.03-.84.31-1.85,1.17-2.05,1.97-.3,1.16,1.47,2.47,3.06,2.14.71-.15,1.19-1.35,1.78-2.08Z"/>
  <path class="cls-1" d="M109.63,355.91c-.79,1.08-3.08,1.47-1.77,3.45.43.66,1.64,1.03,2.52,1.08.42.02,1.13-.95,1.3-1.58.42-1.62-.62-2.42-2.05-2.95Z"/>
  <path class="cls-1" d="M268,193.89c1.15.75,2.32,1,3.72-.01-.05-.73.16-1.79-.25-2.49-.45-.76-1.36-1.61-2.51-.86-1.06.69-2.36,1.37-1.09,2.96.1.12.12.31.18.46l-.06-.06Z"/>
  <path class="cls-1" d="M119.51,178.48c-1.64-.34-1.68,1.13-1.92,2.17-.22.95,1.01,1.83,2.33,1.8,1.09-.03,2.01-.42,2.2-1.59.14-.84-1.55-2.37-2.61-2.37Z"/>
  <path class="cls-1" d="M171.52,52.58c-.08-1.26-1.16-2.41-2.22-2.36-.96.05-1.97,1.38-1.95,2.49.03,1.28.76,1.8,1.92,1.78,1.57-.03,2.32-.71,2.24-1.91Z"/>
  <path class="cls-1" d="M257.36,112.25c.54-.39.9-.85,1.34-.94.88-.18,1.41-.61,1.16-1.46-.19-.68-.57-1.54-1.12-1.82-.77-.39-1.79-.46-2.67-.38-.3.03-.84,1.11-.69,1.45.5,1.1,1.28,2.07,1.98,3.15Z"/>
  <path class="cls-1" d="M264.05,113.94c1.45.47,2.86,2.66,4.13.17.45-.88.95-2.36-.64-3.1-1.45-.68-1.91-.31-3.49,2.93Z"/>
  <path class="cls-1" d="M51.41,34.12c-.03-1.71-.71-3.01-2.49-2.98-.69.01-1.5.84-1.98,1.5-.2.27.19,1.21.56,1.61,1.32,1.42,2.64.71,3.9-.13Z"/>
  <path class="cls-1" d="M84.72,106.3c0-1.83-.08-3.25.05-4.66.03-.36.73-.67,1.36-1.2-1.07,0-2.17-.33-2.88.07-1.68.94-1.33,2.76-.95,4.19.17.63,1.43.98,2.42,1.59Z"/>
  <path class="cls-1" d="M248.91,237.08c-.33-1.76-.92-2.47-2.34-2.61-1.53-.14-2.08,1.01-1.96,1.85.13.9,1.11,2.3,1.81,2.35.83.06,1.75-1.07,2.49-1.59Z"/>
  <path class="cls-1" d="M179.47,117.55c.2-1.62-.02-3.13-1.94-3.26-.73-.05-1.66.7-2.22,1.34-.22.25.19,1.32.59,1.77,1.09,1.25,2.36,1.07,3.58.15Z"/>
  <path class="cls-1" d="M304.07,223.19c3.16-.62,3.57-1.21,2.8-3.45-.43-1.25-1.4-1.39-2.4-1.2-1.03.2-1.11,1.1-.94,1.98.16.85.35,1.7.55,2.66Z"/>
  <path class="cls-1" d="M226.94,194.28c.86-.74,1.8-1.69.93-3.4-.4-.78-2.44-2.12-3.36-1.94-1.01.2-1.3.87-.69,1.69.5.66,1.22,1.15,1.77,1.77.47.53.83,1.15,1.34,1.88Z"/>
  <path class="cls-1" d="M89.06,226.63c-.01-4.67.1-5.1,1.55-5.84-.81-.16-1.58-.3-2.54-.49-1.85,1.19-1.61,3.19-1.04,5.12.14.49,1.17.71,2.03,1.2Z"/>
  <path class="cls-1" d="M233.97,118.21c1.12.51,2.25,1.02,3.37,1.53-.07.64-.14,1.24-.22,2.05,2.41-1.55,3.88-4.43,3.23-6.76-.04,2.21-1.84,1.91-2.6,2.71-1.39,1.44-2.37.13-3.52-.26-.08.24-.17.48-.25.73Z"/>
  <path class="cls-1" d="M61.73,202.34c-.97-1.23-2.21-2-3.58-.83-.53.45-.76,1.61-.63,2.37.08.45,1.12,1.07,1.71,1.04,1.45-.06,2.44-.9,2.5-2.58Z"/>
  <path class="cls-1" d="M172.75,152.26c.51.23,1.2.69,1.96.86.85.18,2.29-1.3,1.94-2.12-.36-.84-1.15-1.79-1.97-2.06-1.15-.38-1.94.9-1.93,3.32Z"/>
  <path class="cls-1" d="M277.73,120.61c1.03-1.55,1.99-3.35,1.15-5.63-1.4,1.85-2.62,3.63-5.28,3.41,1.3.7,2.6,1.4,4.13,2.22Z"/>
  <path class="cls-1" d="M180.95,140.06c2.04-1.52,4.32-1.98,5-4.28-2.38-1.17-3.75.24-4.94,1.66-.38.45-.06,1.49-.06,2.62Z"/>
  <path class="cls-1" d="M215.17,256.91c1.03-2.41-.45-3.65-1.99-4.64-.55-.35-1.6.1-2.82.22,1.96,1.57,2.41,4.1,4.81,4.42Z"/>
  <path class="cls-1" d="M109.24,83.33c-2.24-.91-3.76.17-5.12,1.58-.28.29-.43.94-.32,1.32.09.29.7.57,1.08.58,1.31.04,4.03-2.2,4.35-3.48Z"/>
  <path class="cls-1" d="M154,178.8c.91.62,1.75,1.49,2.76,1.75.41.11,1.52-1,1.68-1.7.29-1.25-.81-2.2-2.32-2.02-.74.09-1.41.8-2.11,1.23v.74Z"/>
  <path class="cls-1" d="M64.77,83.25c-2.07.48-2.43,1.33-1.56,2.84.32.55.29,1.28.55,1.87.2.46.61.83.91,1.24.76-1.53,1.36-2.77,2.08-4.21-.8.06-1.32.11-1.98.16v-1.9Z"/>
  <path class="cls-1" d="M160.26,0c.09.55.15.94.27,1.65-.71-.28-1.18-.47-1.65-.65-.14.05-.28.1-.42.15.32.6.57,1.26.98,1.79.21.27.69.33,1.06.46.52.18,1.36.63,1.53.46.53-.55,1.12-1.36,1.09-2.05-.02-.55-.86-1.13-1.44-1.56-.31-.23-.83-.16-1.42-.25Z"/>
  <path class="cls-1" d="M213.46,117.91c-1.65-.34-2.26.89-2.18,1.98.04.61,1.36,1.59,2.06,1.56.63-.03,1.53-1.13,1.72-1.91.23-.92-.25-1.93-1.61-1.63Z"/>
  <path class="cls-1" d="M116.43,112.18c-.66-1.08-.46-3.11-2.64-2.52-1.17.32-1.78,1.81-1.33,2.77.57,1.21,1.61,1.15,3.97-.25Z"/>
  <path class="cls-1" d="M117.06,230.28c-1.22.24-2.32.29-3.22.73-.29.14-.32,1.57.03,2.02.4.51,1.45.92,2.06.76,1.44-.39,1.21-1.73,1.13-3.51Z"/>
  <path class="cls-1" d="M195,164.62c-.66-1.09-.34-3-2.45-2.46-1.2.31-1.79,1.66-1.31,2.65.6,1.25,1.32,1.23,3.76-.2Z"/>
  <path class="cls-1" d="M207.87,141.14c-1.65-.39-1.92,1.15-1.84,1.89.07.63,1.27,1.42,2.08,1.58.41.08,1.45-1.07,1.5-1.71.07-.86-.21-2.13-1.74-1.76Z"/>
  <path class="cls-1" d="M49.87,139.2c.48.39.92,1.02,1.45,1.11,1.33.23,2.67-.72,2.43-1.78-.16-.72-1.07-1.73-1.71-1.78-1.11-.09-2.2.52-1.8,2.13-.12.11-.25.22-.37.32Z"/>
  <path class="cls-1" d="M385,188.06c-.62,1.78-1.25,2.63-2.61.92l-.31.48c.29.59.5,1.24.9,1.75.41.53.99.92,1.72,1.58.52-.75,1.35-1.58,1.68-2.58.14-.44-.74-1.22-1.38-2.17Z"/>
  <path class="cls-1" d="M225.38,109.41c1.59-.33,2.6-1.25,2.51-2.49-.03-.39-.5-1.06-.79-1.08-1.49-.09-3.66,1.09-3.39,1.76.29.71,1.1,1.22,1.68,1.81Z"/>
  <path class="cls-1" d="M203.73,209.15c.64-1.01,2.93-1.03,1.51-2.99-.83-1.15-2.28-1.4-2.91-.49-1.06,1.55.19,2.41,1.4,3.48Z"/>
  <path class="cls-1" d="M132.09,318.29c-.82.05-2.04-.22-2.45.24-.7.79-.98,2-1.27,3.09-.09.33.36.81.57,1.22.44-.23,1.06-.35,1.27-.72.37-.65.44-1.47.75-2.17.22-.5.62-.92,1.13-1.65Z"/>
  <path class="cls-1" d="M367.56,204.49c.68-1.86,1.36-3.71,2.03-5.57-.16-.07-.32-.13-.48-.2-1.64,1.35-2.34,4.47-5.66,2.65,0,.23.02.46.03.69.49.16.96.36,1.46.49,1.01.26,2.49-.08,2.05,1.95.19,0,.39,0,.58,0Z"/>
  <path class="cls-1" d="M109.66,109.55c-.66,1.02-1.5,1.74-1.43,2.35.08.67.88,1.53,1.57,1.78.88.33,2.12-1.05,1.86-2.18-.15-.64-1.07-1.09-1.99-1.96Z"/>
  <path class="cls-1" d="M187.83,267.54c2.31-.95,2.86-1.67,2.2-2.86-.56-1.01-1.5-1.45-2.5-.79-1.96,1.28-.18,2.36.31,3.65Z"/>
  <path class="cls-1" d="M218.31,55.12c1.82,1.47,3.46,1.7,4.3.67.36-.45.52-1.4.29-1.92-.53-1.22-1.64-1.56-2.81-1.1.33.66.67,1.31,1.11,2.18-.98.06-1.74.1-2.89.17Z"/>
  <path class="cls-1" d="M65.93,148.76c.2-1.2-.4-1.64-1.48-1.67-1.28-.04-1.84.83-1.86,1.85-.03,1.1.76,1.51,1.9,1.55,1.4.05,1.61-.65,1.44-1.73Z"/>
  <path class="cls-1" d="M161.44,160.81c.71-1.2,1.13-2.41-.38-3.13-.56-.27-1.48-.11-2.08.18-.28.13-.36,1.1-.21,1.59.37,1.25,1.32,1.71,2.68,1.35Z"/>
  <path class="cls-1" d="M158.13,243.34c-.13.49-.2,1-.39,1.45-.34.78-.71,1.57-1.58.35-.14-.2-.69-.12-1.05-.17l-.3.53c.7.61,1.32,1.6,2.11,1.74,1.2.22,2.33-.59,2.53-1.85.11-.72-.46-1.54-.73-2.32l-.59.26Z"/>
  <path class="cls-1" d="M94.64,171.93c-.06,1.45,1.01,1.99,1.88,1.95.5-.02,1.24-1.22,1.31-1.94.05-.51-.79-1.51-1.33-1.58-1-.14-2.02.28-1.86,1.57Z"/>
  <path class="cls-1" d="M88.14,282.91c-1.41,1.16-2.46,1.97-1.72,3.27.27.47,1.34.81,1.93.68.47-.1,1.15-1.06,1.07-1.53-.14-.82-.79-1.56-1.28-2.42Z"/>
  <path class="cls-1" d="M284.11,137.01c-.64-.54-1.38-1.59-1.88-1.49-.67.14-1.38,1.11-1.62,1.86-.11.35.94,1.53,1.32,1.46.71-.12,2.18.16,1.83-1.5.12-.11.24-.23.36-.34Z"/>
  <path class="cls-1" d="M226.14,137.47c-.4,1.44-.96,2.88,1.19,3.21.99.15,1.82-.14,1.89-1.32.06-1.08-1.4-1.97-3.08-1.89Z"/>
  <path class="cls-1" d="M183.16,111.09c1.16,1.9,2.59.13,3.76.72.08-.11.17-.23.25-.34-.32-.82-.43-1.87-1.02-2.4-.38-.35-1.44.04-2.54.12.49.72.71,1.04,1.03,1.51-.54.14-.96.25-1.5.39Z"/>
  <path class="cls-1" d="M67.76,114.37c1.15-.14,2.31-.29,3.82-.47.46-1.3-.41-2.75-1.29-4.56-.58,2.02-.3,4.08-2.72,4.6.06.14.13.29.19.43Z"/>
  <path class="cls-1" d="M252.85,213.49c.96.79,1.43,1.48,2.01,1.57.9.15,1.94-.26,1.7-1.41-.14-.68-.86-1.6-1.46-1.72-.51-.1-1.21.79-2.24,1.55Z"/>
  <path class="cls-1" d="M68.02,207.24c.65-.91,1.29-1.82,2.1-2.94-1.13.18-1.17-1.98-2.74-.83-1.94,1.42.45,2.33.1,3.51l.54.26Z"/>
  <path class="cls-1" d="M58.52,340.68c-.12.77-.21,1.3-.37,2.31-.84-.44-1.56-.82-2.37-1.25.51-.54.85-.92,1.2-1.29-.14-.14-.27-.28-.41-.42-.33.36-.94.73-.93,1.08.03.98,0,2.31.6,2.82.73.62,1.91.26,2.73-.67.87-.99.34-1.65-.46-2.57Z"/>
  <path class="cls-1" d="M223.19,132.7c2.27-1.47,3.37-3.13,3.25-4.45-1.18.57-2.43,1.17-3.6,1.73.11.87.22,1.69.35,2.72Z"/>
  <path class="cls-1" d="M150.51,334.58c.98.18,1.99.17,2.11-1.24.04-.47-.12-1.24-.43-1.4-.53-.27-1.44-.45-1.85-.17-1.11.75-.8,1.79.17,2.81Z"/>
  <path class="cls-1" d="M270.07,168.65c-.44.64-1.26,1.31-1.21,1.9.06.63.87,1.45,1.52,1.64.37.11,1.5-.87,1.5-1.36,0-.72-.7-1.45-1.1-2.17-.24,0-.48,0-.72-.01Z"/>
  <path class="cls-1" d="M250.05,185.31c-.52,1.07.45,2.01,1.07,3.07.6-.21,1.23-.27,1.57-.61.34-.35.63-1.06.5-1.48-.12-.41-.76-.78-1.24-.94-.48-.16-1.06-.03-1.89-.03Z"/>
  <path class="cls-1" d="M176.98,126.08c-.72,1.3-1.27,2.15-1.64,3.07-.08.21.68,1.01.74.98.91-.51,1.77-1.11,2.64-1.69-.46-.62-.93-1.24-1.75-2.35Z"/>
  <path class="cls-1" d="M138.79,226.62c.28-.82.8-1.66.74-2.46-.02-.34-1.22-.76-1.91-.83-.37-.04-1.19.8-1.14.89.47.88,1.08,1.69,1.65,2.52.22-.04.44-.08.66-.12Z"/>
  <path class="cls-1" d="M128.46,383.99c-.75.64-1.82,1.13-2.02,1.86-.15.56.81,1.41,1.29,2.17,2.06-1.77,2.09-1.91.72-4.03Z"/>
  <path class="cls-1" d="M65.85,307.77c-1.02.51-1.94,2.74-1.32,3.25.79.64,1.75.78,2.69.06,1.09-.84,1.16-1.24.08-2.49-.38.69-.74,1.36-1.11,2.03-.28-.18-.57-.35-.85-.53.16-.75.33-1.5.51-2.32Z"/>
  <path class="cls-1" d="M288.86,222.04c-1.38.43-2.71.85-3.82,1.21.12.98.2,1.61.28,2.25,1.5-.16,3-1.5,3.55-3.45Z"/>
  <path class="cls-1" d="M240.41,253.58c-.32.27-.64.54-.92.78-.38-.43-.69-.78-.99-1.13-.07.52-.21,1.05-.18,1.57.04.59.23,1.18.36,1.77,2.99-.5,3.27-.97,1.73-2.98Z"/>
  <path class="cls-1" d="M150.47,257.17c1.4-.18,1.91-.76,1.62-1.67-.21-.67-.88-1.2-1.34-1.79-.52.69-1.2,1.32-1.47,2.09-.1.28.77.9,1.19,1.37Z"/>
  <path class="cls-1" d="M268.06,193.94h-2.38c0,.7-.1,1.22.03,1.67.13.46.49,1.21.76,1.21.57,0,1.26-.27,1.68-.66.25-.23.15-.91.13-1.38-.02-.3-.18-.6-.28-.9,0,0,.06.06.06.06Z"/>
  <path class="cls-1" d="M195.82,56.35c.82.27,1.85.6,2.88.93,1.01-2.71.76-3.12-1.47-2.95-.42.6-.79,1.13-1.41,2.02Z"/>
  <path class="cls-1" d="M91.44,193.09c.23-1.02.33-2.14-.9-2.47-.67-.18-1.51.28-2.35.47.68,1.92,1.58,2.68,3.25,2Z"/>
  <path class="cls-1" d="M261.66,52.4c-.58-.36-1.19-1.03-1.73-.98-.5.05-1.16.84-1.27,1.4-.1.47.48,1.08.77,1.62l2.21-1.31c.01-.25.02-.49.03-.74Z"/>
  <path class="cls-1" d="M286.68,153.55c-.55-1.32-1.07-2.55-1.58-3.77-1.17.53-1.85,1.63-1.1,2.54.59.71,1.11,2.31,2.68,1.23Z"/>
  <path class="cls-1" d="M104.99,251.75c-.96-.66-1.86-.28-2.45.96-.57,1.2-.13,2.5.89,2.95.5-1.25,1-2.49,1.56-3.91Z"/>
  <path class="cls-1" d="M222.58,258.05c.93-.83,2.03-1.81,3.41-3.05-1.46.27-2.43.68-3.33.55-.85-.12-1.62-.79-2.8-1.42.7.78,1.26,1.29,1.69,1.89.37.53.6,1.17,1.03,2.03Z"/>
  <path class="cls-1" d="M187.2,127.66c-.91-1.02-1.77-1.99-2.91-3.26.19,2.08.33,3.63.48,5.27.68-.56,1.43-1.19,2.43-2.01Z"/>
  <path class="cls-1" d="M196.12,191.89c.2-.78.6-1.57.52-2.32-.04-.34-1.08-.87-1.55-.78-.51.1-1.36,1.02-1.26,1.27.3.75.98,1.35,1.51,2.01.26-.06.52-.12.78-.18Z"/>
  <path class="cls-1" d="M289.38,102.13c-.92-.13-2.12.01-2.13,1.67,0,1.03-.18,2.48,1.59,2.48.18-1.39.35-2.72.54-4.15Z"/>
  <path class="cls-1" d="M240.42,183.62c1.05.7,1.61,1.31,2.26,1.42.36.06.85-.73,1.29-1.13-.55-.57-1.03-1.28-1.69-1.64-.22-.12-.92.65-1.85,1.35Z"/>
  <path class="cls-1" d="M142.07,231.5c.58-1.17,1.08-1.84,1.19-2.57.04-.24-1.01-.94-1.46-.86-.51.08-1.33.89-1.27,1.24.12.65.79,1.19,1.54,2.2Z"/>
  <path class="cls-1" d="M150.82,166.93c-1.02-.72-1.61-1.46-2.12-1.42-.54.05-1.01.85-1.52,1.32.57.49,1.07,1.17,1.73,1.38.34.11.95-.61,1.91-1.28Z"/>
  <path class="cls-1" d="M61.76,114.13c-.48.61-1.07,1.17-1.38,1.86-.09.19.78,1.13.95,1.07.71-.28,1.44-.72,1.91-1.3.15-.18-.5-1.01-.78-1.53-.23-.03-.47-.06-.7-.09Z"/>
  <path class="cls-1" d="M287.79,164.61c-.52-.24-.71-.36-.92-.42-.47-.14-.95-.26-1.42-.39.28.47.47,1.25.85,1.35.75.21,1.83.36,2.37-.03.69-.49.83-1.52-.09-2.26-.23-.19-.35-.53-.79-1.25v3Z"/>
  <path class="cls-1" d="M84.18,214.4c-1.63-.07-3.26-.15-4.88-.22l.03.4c.65.43,1.29.88,1.97,1.26.41.23,1.01.59,1.32.45.35-.16.46-.82.7-1.3.19-.01.53-.03.87-.05,0-.18,0-.36,0-.54Z"/>
  <path class="cls-1" d="M303.33,196.68c-.3.64-.85,1.3-.8,1.9.04.48.83.89,1.29,1.33.41-.46,1.17-.94,1.14-1.37-.04-.65-.63-1.27-.98-1.9-.21.02-.43.03-.64.05Z"/>
  <path class="cls-1" d="M321.25,174.26c1.12-.2,2.04-.24,1.86-1.46-.07-.47-.63-.87-.96-1.31-.72.56-1.43,1.12-2.15,1.68.42.36.83.73,1.25,1.09Z"/>
  <path class="cls-1" d="M253.35,164.06c-.39,1.38-.1,2.57,1.17,3.33.41.24.97.23,1.59.07-1.11-1.08-.86-3.12-2.76-3.39h0Z"/>
  <path class="cls-1" d="M176.53,199c-.64-.93-.56-2.46-2.2-1.31-.21.14-.76-.21-1.47-.02.55.75,1,1.66,1.72,2.18.27.2,1.19-.49,1.95-.84Z"/>
  <path class="cls-1" d="M48.96,346.88c-.7.77-1.22,1.34-1.74,1.9.49.44,1.09,1.3,1.46,1.22.56-.14,1.15-.87,1.35-1.47.11-.33-.56-.92-1.06-1.65Z"/>
  <path class="cls-1" d="M54.65,67.76q1.32.69,2.38-1.88c-1.18-1.45-2.05-.34-3.14.31.77.19,1.4.34,2.03.5.1.17.2.34.3.5-.53.19-1.05.38-1.58.58Z"/>
  <path class="cls-1" d="M90.52,120.84c-.67-.2-1.35-.41-2.02-.61-.48,1.99-.17,2.45,2.5,3.34-.2-1.04-.36-1.91-.53-2.78,0,0,.05.05.05.05Z"/>
  <path class="cls-1" d="M128.1,306.19c-.71-.09-1.55-.45-2.06-.19-.71.37-1.19,1.2-1.69,1.89-.07.1.25.71.44.73.32.04.73-.11,1-.33.72-.59,1.38-1.25,2.31-2.11Z"/>
  <path class="cls-1" d="M253.35,164.07c-.14-.05-.39-.07-.42-.15-.66-2-1.94-1.79-3.4-.98,0,0-.05-.05-.05-.05.23.3.44.61.68.9,1.12,1.41,1.73,1.46,3.18.27,0,0,0,0,0,0Z"/>
  <path class="cls-1" d="M228.11,158.86c-.63-.49-1.11-1.14-1.71-1.27-.52-.11-1.16.35-1.75.56.55.75,1.1,1.49,1.7,2.31.6-.55,1.04-.95,1.76-1.6Z"/>
  <path class="cls-1" d="M379.29,134.27c-.53.77-1.06,1.45-1.46,2.2-.1.18.18.72.42.87.25.16.73.16,1.01.03,1.25-.6,1.32-1.62.03-3.1Z"/>
  <path class="cls-1" d="M171.13,91.59c-.23-.56-.33-1.42-.74-1.6-.51-.23-1.3,0-1.91.21-.17.06-.26,1.02-.16,1.06.76.35,1.57.57,2.37.84.15-.17.29-.34.44-.51Z"/>
  <path class="cls-1" d="M88.39,273.39c-.36.63-1.09,1.35-1.01,1.94.07.53,1.06.93,1.97,1.65.13-1.61.92-2.77-.96-3.59Z"/>
  <path class="cls-1" d="M249.89,75.01c-.35.59-.89,1.15-.97,1.77-.05.38.61.85.94,1.27.45-.54,1.04-1.02,1.27-1.64.12-.32-.39-.89-.61-1.34-.21-.02-.43-.04-.64-.05Z"/>
  <path class="cls-1" d="M102,81.11c-1.18.13-2,.18-2.78.36-.09.02-.2.87-.01,1.09.43.5,1.03.84,1.76,1.4.38-1.05.61-1.66,1.04-2.84Z"/>
  <path class="cls-1" d="M192.5,68.2c-.22,1.11-.42,2.12-.61,3.08.59.38,1.14.73,1.69,1.09.6-1.56.38-2.46-1.08-4.16Z"/>
  <path class="cls-1" d="M37.83,130.61c.87-.66,1.32-.99,1.78-1.34.35.69.6,1.2,1.04,2.07.69-1.67.33-2.51-.7-2.99-.36-.17-1.11-.18-1.25.03-.38.56-.52,1.27-.87,2.23Z"/>
  <path class="cls-1" d="M258.65,186.34c.96,1,1.92,2,2.93,3.05.91-1.5-.33-3.07-2.45-3.49-.16.15-.32.3-.47.44Z"/>
  <path class="cls-1" d="M121.65,262c-.67,0-1.4-.15-2,.06-.29.1-.56.95-.44,1.33.12.38.95.92,1.12.81.61-.37,1.07-.98,1.59-1.5-.09-.24-.18-.47-.27-.71Z"/>
  <path class="cls-1" d="M174.14,106.38c-.16-.9-.14-1.5-.39-1.95-.16-.29-.74-.35-1.13-.51-.23.72-.85,1.63-.61,2.12.5,1,1.48.91,2.13.34Z"/>
  <path class="cls-1" d="M258.43,33.37c-.52.67-1.05,1.2-1.37,1.84-.13.26.1.89.36,1.1.23.19.83.2,1.12.03,1.2-.73,1.17-1.67-.11-2.97Z"/>
  <path class="cls-1" d="M49.99,322.9c-.64.79-1.33,1.27-1.36,1.79-.03.43.71.92,1.11,1.38.46-.5,1.11-.93,1.32-1.52.11-.3-.54-.88-1.06-1.65Z"/>
  <path class="cls-1" d="M232.22,180.78c.56,1,.93,1.67,1.49,2.66.61-.7,1.15-1.2,1.51-1.8.12-.2-.19-.97-.33-.98-.81-.05-1.62.05-2.66.12Z"/>
  <path class="cls-1" d="M216.85,165.45c-1.35,1-2.4,1.77-3.35,2.48.35.17,1.12.55,2.21,1.09.31-.97.7-2.19,1.14-3.57Z"/>
  <path class="cls-1" d="M147.56,17.94c.56-.26,1.55-.44,1.61-.79.19-1.06.03-2.19-.37-3.21-.48,1.19-.97,2.38-1.45,3.57.07.14.14.29.21.43Z"/>
  <path class="cls-1" d="M188.42,67.16c-.17-.52-.27-.91-.41-1.28-.13-.35-.34-1-.44-.98-.57.08-1.14.29-1.66.55-.05.03.18.66.3,1.01.43,1.34,1.26,1.36,2.22.72Z"/>
  <path class="cls-1" d="M126.73,131.56c.23,1.28.47,2.56.72,3.98.55-.26,1.13-.53,1.94-.92-.83-1.18-1.6-2.27-2.37-3.36-.1.1-.2.2-.3.3Z"/>
  <path class="cls-1" d="M304.29,145.22c-.99.3-2.25.38-1.54,1.81.22.45,1.28.97,1.57.8,1.22-.7.58-1.63-.03-2.61Z"/>
  <path class="cls-1" d="M224.14,203.97c.42.5.77,1.3,1.28,1.42.55.13,1.72-.28,1.79-.62.14-.72-.26-1.55-.44-2.33l-.46.11c.03.64.06,1.29.11,2.34-.79-.6-1.26-.96-1.73-1.31-.18.13-.36.25-.54.38Z"/>
  <path class="cls-1" d="M164.67,224.87c-.77-.77-1.43.01-1.67.73-.25.75-.03,1.65,0,2.49.39-.26.97-.44,1.13-.8.3-.66.35-1.44.55-2.41Z"/>
  <path class="cls-1" d="M278.5,54.57c.5.36,1.15.96,1.26.88.56-.43,1.11-.98,1.37-1.61.1-.26-.54-.82-.85-1.24-.54.6-1.08,1.2-1.78,1.98Z"/>
  <path class="cls-1" d="M290.89,200.03c.21-.45.67-.97.57-1.33-.15-.51-.71-.91-1.09-1.36-.37.45-1.01.88-1.04,1.35-.03.44.59.92.92,1.39.21-.02.43-.04.64-.05Z"/>
  <path class="cls-1" d="M56.23,315.84c.95.73,1.9,1.04,2.5-.2.18-.36-.23-1.46-.47-1.5-1.08-.15-1.88.34-2.03,1.7Z"/>
  <path class="cls-1" d="M307.73,107.17c-.66.35-1.32.7-1.98,1.05.41.5.82,1,1.22,1.5.46-.57.92-1.14,1.39-1.71-.21-.28-.42-.56-.63-.84Z"/>
  <path class="cls-1" d="M137.37,323.57c-.63-.8-1.04-2.02-2.16-.94-.32.3-.41,1.4-.14,1.65.95.91,1.63.13,2.31-.71Z"/>
  <path class="cls-1" d="M102.59,308.77c.21-.77.45-1.53.59-2.31.01-.08-.61-.43-.84-.36-.45.15-1.16.52-1.16.79.02.64.38,1.27.61,1.9.26,0,.53-.01.79-.02Z"/>
  <path class="cls-1" d="M100.14,353.13c.72-.92,1.24-1.38,1.42-1.94.06-.19-.78-.94-1.17-.91-.43.03-1.03.6-1.16,1.05-.1.34.41.86.92,1.81Z"/>
  <path class="cls-1" d="M199.81,227.04c.17.13.45.23.5.4.29,1.13.52,2.27.77,3.41.17.02.33.03.5.05.12-.98.5-2.03.26-2.91-.12-.46-1.33-.63-2.06-.93,0,0,.03-.01.03-.01Z"/>
  <path class="cls-1" d="M181.67,93.52c-.34-.61-.59-1.32-1.08-1.76-.16-.14-1.01.35-1.43.69-.18.14-.18.89-.08.93.7.29,1.45.48,2.18.69.14-.19.28-.37.42-.56Z"/>
  <path class="cls-1" d="M83.46,87.3c.33,1.24.52,1.91.78,2.88.3-.06,1.1-.02,1.28-.33.24-.41.19-1.27-.11-1.63-.35-.43-1.09-.54-1.95-.92Z"/>
  <path class="cls-1" d="M84.64,151.94c-.61-.48-1.15-1.1-1.31-1.01-.56.31-.99.86-1.46,1.31.45.4.88,1.06,1.37,1.12.34.04.78-.76,1.4-1.42Z"/>
  <path class="cls-1" d="M206.75,107.73c-.38-1.06-.67-2.08-1.95-1.44-.34.17-.73,1.05-.6,1.25.66.95,1.54,1.09,2.55.19Z"/>
  <path class="cls-1" d="M300.33,153.46c.88.68,1.33,1.02,1.77,1.36.36-.5.88-.95,1.01-1.51.06-.26-.61-1.02-.92-1-.48.03-.93.53-1.86,1.14Z"/>
  <path class="cls-1" d="M59.44,292.14c.15.61.23,1.25.49,1.81.07.14.86.14,1.09-.05.35-.3.5-.84.73-1.28-.57-.3-1.14-.6-1.71-.89-.2.14-.4.28-.6.42Z"/>
  <path class="cls-1" d="M273.95,94.32c.39-.65.79-1.3,1.43-2.37h-2.47c.12.77.25,1.53.37,2.3.22.02.45.05.67.07Z"/>
  <path class="cls-1" d="M86.88,180.02c-.99-.1-1.76-.17-2.66-.26-.47.87-.18,1.65.82,1.91,1.19.31,1.66-.52,1.84-1.65Z"/>
  <path class="cls-1" d="M270.9,161.74c.53-.68,1.11-1.14,1.03-1.4-.16-.51-.68-.92-1.04-1.37-.38.4-.99.77-1.08,1.22-.06.35.55.82,1.08,1.54Z"/>
  <path class="cls-1" d="M180.94,233.56c-.7.15-1.4.31-2.1.46.21.58.41,1.15.62,1.73.62-.4,1.23-.79,1.85-1.19-.12-.33-.25-.67-.37-1Z"/>
  <path class="cls-1" d="M108.86,72.76c.27,1.33.5,2.44.73,3.6,1.9-1.16,1.81-1.67-.73-3.6Z"/>
  <path class="cls-1" d="M76.43,18.87c-.84-.14-1.55-.35-2.25-.32-.14,0-.42,1.34-.31,1.39.83.4,1.76.72,2.56-1.08Z"/>
  <path class="cls-1" d="M26.74,140.2c-.38.78-.83,1.28-.72,1.58.16.43.7.94,1.11.97.34.02.73-.6,1.09-.94-.4-.43-.8-.86-1.49-1.6Z"/>
  <path class="cls-1" d="M342.65,143.72c.38.18.76.36,1.16.55.42-2.09-.34-2.99-2.07-2.68.31.71.63,1.44.95,2.16,0,0-.04-.03-.04-.03Z"/>
  <path class="cls-1" d="M267.53,150.23v-2.58c-.73.29-1.64.35-1.87.79-.88,1.65,1.37.96,1.44,2,.14-.07.29-.14.43-.21Z"/>
  <path class="cls-1" d="M163.72,274.93c.61.48,1.11,1.11,1.4,1.03.46-.13.78-.74,1.16-1.15-.38-.35-.76-.97-1.14-.97-.41,0-.81.59-1.42,1.08Z"/>
  <path class="cls-1" d="M73.3,176.32c-.92.14-1.68.16-2.34.42-.13.05,0,1.45.2,1.5,1.1.29,1.83-.23,2.14-1.92Z"/>
  <path class="cls-1" d="M194.13,128.44c.21.36.43.71.74,1.23-.62.11-1.08.19-1.54.28-.04.14-.07.29-.11.43.48.17,1.1.61,1.42.46.52-.26,1.21-.95,1.16-1.38-.06-.49-.84-.91-1.31-1.35-.12.11-.24.22-.36.33Z"/>
  <path class="cls-1" d="M115.07,301.06c.94.05,1.87.11,2.81.16.07-.18.14-.37.22-.55-.62-.43-1.19-1.06-1.86-1.22-.37-.08-.92.64-1.39,1.01.08.2.15.4.23.6Z"/>
  <path class="cls-1" d="M94.36,237.52c-.85-.25-1.45-.59-2.03-.55-.48.03-.47.37.04,2.78.65-.73,1.19-1.33,1.98-2.22Z"/>
  <path class="cls-1" d="M284.44,101.01c.12-.85.25-1.7.37-2.55h-2.97c1.02.72,2.49.87,2.12,2.83.16-.09.32-.18.48-.28Z"/>
  <path class="cls-1" d="M125.19,289.39c-.17-.52-.3-.93-.44-1.33-1.95-.75-1.7.8-2,2.2.93-.33,1.68-.6,2.44-.87Z"/>
  <path class="cls-1" d="M73.3,116.47c-.14.54-.43,1.11-.35,1.62.05.29.83.77,1.05.67.56-.26,1-.8,1.68-1.39-.96-.22-1.42-.33-1.88-.43-.17-.15-.34-.31-.5-.46Z"/>
  <path class="cls-1" d="M69.96,327.84c-2.11-.09-2.8.8-2.18,2.92.79-1.06,1.42-1.9,2.18-2.92Z"/>
  <path class="cls-1" d="M106.02,11.11c-1.02-.41-2.04-.82-3.06-1.23l-.26.64c.89.69,1.59,1.84,3.03,1.3.1-.24.2-.48.3-.71Z"/>
  <path class="cls-1" d="M97.16,265.51c-.3.69-.6,1.37-.9,2.06.64-.03,1.28-.06,1.93-.1-.1-.65-.2-1.3-.29-1.95-.24,0-.48,0-.73,0Z"/>
  <path class="cls-1" d="M222.69,46.94c-.84-.25-1.68-.53-2.54-.71-.22-.05-.74.28-.74.41.01.3.2.71.45.86,1.09.69,2,.26,2.79-.61l.04.04Z"/>
  <path class="cls-1" d="M271.76,188.43c.35-.39.52-.71.79-.84.29-.15.67-.12,1.01-.17-.45-.4-.85-.94-1.37-1.12-.23-.08-.87.51-1.03.92-.1.26.34.73.6,1.21Z"/>
  <path class="cls-1" d="M169.58,110.08c.15-.88.26-1.38.3-1.88.01-.16-.13-.44-.27-.48-.28-.09-.8-.18-.86-.07-.3.52-.75,1.21-.6,1.64.14.4.98.56,1.44.79Z"/>
  <path class="cls-1" d="M187.53,172.32c-.62-.52-1.01-.84-1.4-1.17-.31.41-.94.92-.85,1.2.15.48.76.82,1.18,1.22.28-.33.57-.66,1.07-1.25Z"/>
  <path class="cls-1" d="M155.7,170.25c-.75.19-1.51.38-2.26.57.45.46.9.93,1.35,1.39.43-.48.86-.96,1.29-1.43-.12-.18-.25-.35-.37-.53Z"/>
  <path class="cls-1" d="M166.11,95.73l1.73,1.09c.18-.52.36-1.03.54-1.55-.62-.18-1.23-.36-1.85-.54-.14.33-.28.67-.42,1Z"/>
  <path class="cls-1" d="M91.74,145.86c.5-.61.99-.96,1.08-1.4.06-.27-.48-.67-.75-1.02-.48.4-.97.81-1.45,1.21.29.31.57.61,1.13,1.2Z"/>
  <path class="cls-1" d="M123.96,311.24c.97.82,1.69,1.43,2.45,2.07.89-1.77.64-1.97-2.45-2.07Z"/>
  <path class="cls-1" d="M249.53,162.93c-.95.53-1.9,1.06-2.86,1.59.06.13.12.26.17.39h2.44c.07-.7.13-1.37.19-2.04,0,0,.05.05.05.05Z"/>
  <path class="cls-1" d="M216.43,73.26c-1-.5-1.79-.9-2.58-1.29-.08.33-.35.79-.22.97.6.87,1.36,1.46,2.8.32Z"/>
  <path class="cls-1" d="M342.69,143.76c-.27-.02-.55-.07-.82-.05-.51.03-1.01.1-1.52.15.08.28.11.77.25.81.7.18,1.43.24,2.15.34-.03-.43-.07-.85-.1-1.28,0,0,.04.03.04.03Z"/>
  <path class="cls-1" d="M307.14,158.33c-.47.54-.77.89-1.08,1.23.4.33.89.99,1.17.91.44-.12.74-.75,1.11-1.16-.33-.27-.65-.53-1.2-.98Z"/>
  <path class="cls-1" d="M238.43,162.72c-.76.42-1.22.67-1.68.93.41.67.83,1.34,1.24,2.02.15-.06.3-.13.45-.19v-2.75Z"/>
  <path class="cls-1" d="M256.71,143.01c.45.39.91,1,1.12.92.51-.19,1.03-.62,1.29-1.09.11-.19-.46-.75-.71-1.14-.5.39-1,.77-1.7,1.31Z"/>
  <path class="cls-1" d="M57.87,154.68c-.56.87-.92,1.36-1.18,1.91-.03.07.56.62.74.57.49-.16,1.12-.43,1.31-.83.12-.26-.42-.84-.87-1.65Z"/>
  <path class="cls-1" d="M221.73,129.56c-.7-1.16-1.4-2.32-2.1-3.47-.16.1-.31.2-.47.3-.07,1.65,1.52,2.24,2.13,3.46.15-.09.3-.19.44-.28Z"/>
  <path class="cls-1" d="M85.77,30.22c-.77-.35-1.45-.65-2.57-1.16.22.74.21,1.53.57,1.76.7.45,1.57.51,2-.6Z"/>
  <path class="cls-1" d="M222.65,46.9c1.11-1.64.86-2.11-1.84-3.08.71,1.18,1.3,2.15,1.88,3.12,0,0-.04-.04-.04-.04Z"/>
  <path class="cls-1" d="M26.11,226.19c.91-.09,1.68-.17,2.44-.24-.24-.39-.38-.96-.73-1.14-.96-.5-1.5-.05-1.71,1.39Z"/>
  <path class="cls-1" d="M181.19,65.87c.4.37.79.74,1.51,1.4.29-.85.51-1.49.72-2.12-.74.04-1.48.09-2.22.13,0,.2,0,.4,0,.59Z"/>
  <path class="cls-1" d="M44.35,63.02c.34.73.68,1.47,1.02,2.2.24-.43.75-.91.67-1.27-.11-.51-.64-.93-.99-1.39-.23.15-.47.3-.7.45Z"/>
  <path class="cls-1" d="M22.85,103.96h2.53c-.1-.38-.08-.95-.33-1.11-.89-.56-1.65-.38-2.2,1.11Z"/>
  <path class="cls-1" d="M91.83,102.81c2.02-.56,1-3.25,3.31-2.87-.37-.15-.74-.31-1.33-.54-.58.99-1.18,2.03-1.98,3.41Z"/>
  <path class="cls-1" d="M76.93,299.47c.68-.76,1.36-1.52,2.29-2.56-2.18.17-2.56.59-2.29,2.56Z"/>
  <path class="cls-1" d="M163.71,203.3c-.79.6-1.35.94-1.79,1.4-.22.23-.29.69-.25,1.02.02.18.43.48.61.44.28-.06.63-.31.73-.56.27-.64.42-1.34.7-2.3Z"/>
  <path class="cls-1" d="M110.79,58.72c.55-.41,1.1-.81,1.64-1.22,0-.15,0-.3,0-.46-.67-.07-1.34-.15-2.01-.22-.05.58-.11,1.16-.16,1.74.18.05.36.1.53.15Z"/>
  <path class="cls-1" d="M246.41,110.15c1.83.56,2.07-.31,2.21-1.15.02-.14-.88-.63-.95-.56-.44.45-.77,1.01-1.26,1.71Z"/>
  <path class="cls-1" d="M77.71,340.67c.56.51,1,1.02,1.1.97.47-.27.85-.71,1.26-1.08-.29-.27-.61-.77-.88-.74-.42.04-.8.44-1.49.86Z"/>
  <path class="cls-1" d="M125.98,301.85q1.42-1.85-.49-3.07c.17,1.07.33,2.1.49,3.07Z"/>
  <path class="cls-1" d="M142.05,168.03c.08,1.14.11,1.67.15,2.2.15.09.3.18.46.27.42-.5.84-1,1.26-1.51-.51-.26-1.01-.52-1.87-.96Z"/>
  <path class="cls-1" d="M113.95,198.36c.55.46.9.88,1.34,1.05.17.07.84-.54.8-.66-.19-.5-.56-.92-.86-1.38-.36.28-.72.56-1.27.99Z"/>
  <path class="cls-1" d="M54.35,370.33c.26-.57.53-1.14.79-1.71-.42-.13-.84-.26-1.27-.39l-.41,1.8c.3.1.59.2.89.3Z"/>
  <path class="cls-1" d="M151.55,212.43c.78.59,1.16.88,1.53,1.16.35-.39.7-.77,1.05-1.16-.41-.34-.77-.64-1.41-1.17-.35.35-.71.71-1.17,1.17Z"/>
  <path class="cls-1" d="M247.41,97.36c1.42-.39,2.34-.64,3.6-.98-.69-.32-1.41-.96-1.86-.8-.62.21-1.04,1.02-1.73,1.78Z"/>
  <path class="cls-1" d="M276.82,150.33c.78-.07,1.55-.15,2.43-.23-.07-.57-.13-1.03-.23-1.8-.91.67-1.62,1.2-2.34,1.73.05.1.09.19.14.29Z"/>
  <path class="cls-1" d="M68.94,37.52c.45.58.89,1.17,1.34,1.75.2-.36.64-.85.54-1.04-.29-.52-.82-.9-1.25-1.34-.21.21-.42.42-.63.62Z"/>
  <path class="cls-1" d="M86.01,310.62c.48-.36.96-.72,1.43-1.08-.26-.32-.51-.65-.77-.97-.44.45-.89.9-1.33,1.35.22.24.45.47.67.71Z"/>
  <path class="cls-1" d="M18.19,136.15c-1.14-1.29-2-1.54-2.23.6.87-.23,1.55-.42,2.23-.6Z"/>
  <path class="cls-1" d="M178.26,216.29c.44.53.88,1.06,1.32,1.59.15-.07.3-.13.46-.2,0-.54.18-1.2-.06-1.58-.17-.27-.92-.18-1.42-.25-.1.15-.2.29-.3.44Z"/>
  <path class="cls-1" d="M129.41,358.8c-.38.56-.77,1.13-1.15,1.69.51.09,1.01.19,1.52.28.09-.57.18-1.15.28-1.72-.21-.08-.43-.17-.64-.25Z"/>
  <path class="cls-1" d="M215.89,70.59c.39.85.79,1.7,1.26,2.71,1.3-1.83-.36-2.13-1.26-2.71Z"/>
  <path class="cls-1" d="M234.31,116.98c-.73-.91-1.27-1.59-1.93-2.42-.33,1.74.1,2.29,1.93,2.42Z"/>
  <path class="cls-1" d="M170.49,123.68c-1.66,1.42-.86,1.96.46,2.4-.13-.7-.27-1.39-.46-2.4Z"/>
  <path class="cls-1" d="M66.69,276.58c-.08-.58-.15-1.16-.23-1.74-.38.1-.76.19-1.15.29.21.54.42,1.08.63,1.62.25-.06.5-.12.75-.18Z"/>
  <path class="cls-1" d="M120.77,366.5v-1.68c-.4.03-.79.06-1.19.09.06.56.12,1.12.18,1.68.34-.03.68-.06,1.01-.09Z"/>
  <path class="cls-1" d="M143.72,90.42c.12.34.21.7.36,1.03.15.33.36.64.54.96.22-.39.72-.91.61-1.15-.23-.5-.78-.84-1.2-1.25-.11.14-.21.27-.32.41Z"/>
  <path class="cls-1" d="M61.22,333.46c-.37.57-.73.94-.82,1.36-.04.2.44.51.68.77.38-.36.82-.68,1.09-1.1.05-.09-.52-.57-.95-1.03Z"/>
  <path class="cls-1" d="M178.71,226.96c-.48.52-1.15.95-1.1,1.25.1.55.63,1.03.97,1.54.12-.07.25-.15.37-.22-.07-.72-.14-1.44-.25-2.56Z"/>
</svg>