<?xml version="1.0" encoding="UTF-8"?>
<svg xmlns="http://www.w3.org/2000/svg" viewBox="0 0 97.32 82.36">
  <defs>
    <style>
      .cls-1, .cls-2 {
        fill: #ffe9c7;
      }

      .cls-3 {
        fill: #fff;
        mix-blend-mode: overlay;
        opacity: .84;
      }

      .cls-4 {
        fill: #ffc034;
      }

      .cls-4, .cls-5, .cls-2, .cls-6, .cls-7 {
        fill-rule: evenodd;
      }

      .cls-8 {
        isolation: isolate;
      }

      .cls-5 {
        fill: #e07319;
      }

      .cls-9 {
        fill: #303030;
      }

      .cls-10 {
        fill: #fc9627;
      }

      .cls-11 {
        fill: #383838;
      }

      .cls-12 {
        mix-blend-mode: multiply;
      }

      .cls-12, .cls-6 {
        fill: #bde1fb;
      }

      .cls-7, .cls-13 {
        fill: #ffdc9f;
      }
    </style>
  </defs>
  <g class="cls-8">
    <g id="OBJECTS">
      <g>
        <path class="cls-9" d="M51.88,26.89c.08,0,.08-.12,0-.12s-.08.12,0,.12h0Z"/>
        <path class="cls-9" d="M54.02,24.7s.01-.02,0-.02-.01.02,0,.02h0Z"/>
        <path class="cls-4" d="M60.42,22.27c0-1.78,3.11-2.12,3.96-2.21,1.35-.14,2.24-.19,3.26.31.71.35,1.01,1.02,1.46,1.59"/>
        <path class="cls-4" d="M94.51,39.84c-1.19-3.38-3.81-6.67-6.82-9.52h0c-2.22-2.11-4.63-3.98-6.82-5.48-5.51-3.76-11.81-2.89-18.3-2.89-20.44,2.44-25.86,19.91-26.23,28.26-.46,10.48,4.31,21.01,12.86,26.5,1.35.88,2.81,1.62,4.35,2.23,15.04,5.84,25.57,1.9,35.11-6.75,8.49-7.7,9.88-20.86,5.86-32.36ZM40.87,50.45c.31-7.09,4.92-21.94,22.29-24.01,5.51,0,10.86-.74,15.54,2.46,4.39,3,9.84,7.75,11.6,12.74,3.42,9.76,2.24,20.95-4.97,27.5-8.11,7.34-17.05,10.68-29.83,5.72-9.56-3.7-15.09-14.08-14.63-24.41Z"/>
        <path class="cls-10" d="M88.65,72.19c-9.54,8.65-20.07,12.58-35.11,6.75-1.54-.6-3-1.34-4.35-2.23,1.54-1.63,2.71-.6,2.71-.6,0,0,5.77,2.21,9.54,3.06,3.77.86,11.61,1.85,20.63-3.95,9.01-5.8,12.15-15.66,12.15-24.76s-6.31-19.79-6.52-20.15c3,2.85,5.63,6.14,6.82,9.52,4.02,11.5,2.64,24.66-5.86,32.36Z"/>
        <path class="cls-5" d="M50.33,77.2s2.14-1.21,3.46-3.1l-2.04-.91-3.3,3.1,1.88.9Z"/>
        <path class="cls-11" d="M62.56,21.69c-5.9.35-11.69,2.73-16.18,6.57-3.63,3.11-6.34,7.16-8.13,11.58-1.43,3.54-2.3,7.35-2.38,11.18-.13,6.61,1.73,13.31,5.5,18.77,1.84,2.66,4.12,5.01,6.77,6.87,2.95,2.07,6.33,3.37,9.79,4.33,6.48,1.79,13.32,1.81,19.59-.77,2.95-1.21,5.68-2.87,8.2-4.81s5.12-4.26,6.98-7.05c3.78-5.66,4.95-12.73,4.32-19.42-.33-3.47-1.05-7.07-2.44-10.29s-3.89-6.17-6.48-8.65c-1.35-1.28-2.77-2.48-4.24-3.62s-2.89-2.23-4.51-3.05c-3.41-1.72-7.24-2.04-11-2.03-1.93,0-3.86.14-5.79.14-.67,0-.67,1.05,0,1.05,1.9,0,3.81-.02,5.71-.04s3.7.02,5.53.3,3.6.79,5.24,1.63,2.98,1.9,4.37,2.96c2.87,2.21,5.62,4.73,7.8,7.64,1.02,1.36,1.94,2.82,2.57,4.4s1.09,3.26,1.47,4.92c1.46,6.43,1.3,13.44-1.36,19.55-1.28,2.95-3.12,5.62-5.49,7.8s-4.85,4.09-7.58,5.66-5.4,2.63-8.34,3.25-6.26.73-9.39.34c-3.61-.45-7.29-1.47-10.6-2.98-2.88-1.31-5.47-3.19-7.65-5.48-4.4-4.61-7.15-10.83-7.89-17.15-.49-4.23-.09-8.42,1.15-12.48s3.38-8.15,6.31-11.41c3.62-4.03,8.4-6.8,13.62-8.17,1.52-.4,3.06-.74,4.6-1.02.28-.05.22-.52-.07-.51h0Z"/>
        <path class="cls-9" d="M55.89,28.77s.01-.02,0-.02-.01.02,0,.02h0Z"/>
        <path class="cls-11" d="M78.43,29.34c2.48,1.7,4.83,3.61,6.91,5.78s3.77,4.54,4.69,7.38c1.75,5.4,2.18,11.36.61,16.86-.74,2.59-1.94,5.08-3.62,7.19s-3.86,3.88-6.07,5.42c-4.28,2.98-9.2,4.79-14.45,4.71-3.01-.05-5.97-.66-8.82-1.59s-5.28-2.1-7.5-3.93c-4.19-3.44-6.97-8.37-8.16-13.62-.87-3.85-.87-7.84.05-11.68.84-3.47,2.32-6.79,4.45-9.67,2.58-3.49,6.15-6.16,10.21-7.69,1.21-.46,2.46-.82,3.72-1.09.67-.14,1.34-.27,2.01-.36.8-.12,1.6-.09,2.4-.11,3.11-.06,6.31-.24,9.35.53,1.51.38,2.92,1.01,4.21,1.88.56.38,1.08-.53.53-.9-2.74-1.85-5.95-2.48-9.2-2.59-1.66-.05-3.32,0-4.97.04-.8.01-1.58,0-2.37.11-.73.1-1.45.23-2.17.38-4.74,1.02-9.17,3.3-12.55,6.81-2.74,2.84-4.73,6.35-5.97,10.08-1.15,3.46-1.62,7.1-1.3,10.74.49,5.59,2.64,11.04,6.34,15.28,1.82,2.09,4.03,3.85,6.5,5.12,2.82,1.45,6.01,2.4,9.14,2.92,5.52.91,11.04.08,15.98-2.56,2.42-1.29,4.64-2.94,6.71-4.74s3.91-4.08,5.15-6.65c2.55-5.26,2.93-11.36,1.86-17.05-.55-2.94-1.42-5.85-3.09-8.36-1.76-2.63-4.06-4.89-6.49-6.88-1.15-.94-2.33-1.82-3.55-2.66-.56-.38-1.08.52-.53.9Z"/>
        <path class="cls-4" d="M58.86,39.84c-.96-2.74-2.88-5.43-5.17-7.86h0c-2.61-2.78-5.72-5.25-8.46-7.14-5.51-3.76-11.81-2.89-18.3-2.89C6.48,24.39,1.06,41.86.68,50.21c-.3,6.7,1.55,13.42,5.17,18.84h0c2.93,4.4,7.02,7.93,12.06,9.89,15.04,5.84,25.56,1.9,35.1-6.75,8.5-7.7,9.89-20.86,5.86-32.36ZM7.25,50.55c.3-6.54,4.54-20.19,20.52-22.1,5.09,0,10.01-.69,14.32,2.26,4.04,2.77,9.06,7.14,10.67,11.73,3.15,9,2.06,19.28-4.58,25.31-7.46,6.76-15.7,9.83-27.46,5.27-8.79-3.41-13.88-12.97-13.46-22.47Z"/>
        <path class="cls-5" d="M48.43,35.99s2.7-3.64,5-4.29c0,0-.67-1.15-1.26-1.25-.59-.09-4.66,3.54-5.09,4.16-.44.62,1.35,1.38,1.35,1.38Z"/>
        <path class="cls-10" d="M53,72.19c-9.54,8.65-20.06,12.58-35.1,6.75-5.03-1.95-9.13-5.49-12.06-9.88h0c.65-1.64,2.74.97,5.87,3.38,3.14,2.41,8.7,8.52,23.11,6.25,13.73-2.17,21.94-12.69,23.9-23.09,1.96-10.41-5.04-23.62-5.04-23.62h0c2.29,2.43,4.21,5.12,5.17,7.86,4.03,11.5,2.64,24.66-5.86,32.36Z"/>
        <path class="cls-11" d="M26.92,21.69c-5.9.35-11.69,2.73-16.18,6.57-3.63,3.11-6.34,7.16-8.13,11.58-1.43,3.54-2.3,7.35-2.38,11.18-.13,6.61,1.73,13.31,5.5,18.77,1.84,2.66,4.12,5.01,6.77,6.87,2.95,2.07,6.33,3.37,9.79,4.33,6.48,1.79,13.32,1.81,19.59-.77,2.95-1.21,5.68-2.87,8.2-4.81s5.12-4.26,6.98-7.05c3.78-5.66,4.95-12.73,4.32-19.42-.33-3.47-1.05-7.07-2.44-10.29s-3.89-6.17-6.48-8.65c-1.35-1.28-2.77-2.48-4.24-3.62s-2.89-2.23-4.51-3.05c-3.41-1.72-7.24-2.04-11-2.03-1.93,0-3.86.14-5.79.14-.67,0-.67,1.05,0,1.05,1.9,0,3.81-.02,5.71-.04s3.7.02,5.53.3,3.6.79,5.24,1.63,2.98,1.9,4.37,2.96c2.87,2.21,5.62,4.73,7.8,7.64,1.02,1.36,1.94,2.82,2.57,4.4s1.09,3.26,1.47,4.92c1.46,6.43,1.3,13.44-1.36,19.55-1.28,2.95-3.12,5.62-5.49,7.8s-4.85,4.09-7.58,5.66-5.4,2.63-8.34,3.25-6.26.73-9.39.34c-3.61-.45-7.29-1.47-10.6-2.98-2.88-1.31-5.47-3.19-7.65-5.48-4.4-4.61-7.15-10.83-7.89-17.15-.49-4.23-.09-8.42,1.15-12.48s3.38-8.15,6.31-11.41c3.62-4.03,8.4-6.8,13.62-8.17,1.52-.4,3.06-.74,4.6-1.02.28-.05.22-.52-.07-.51h0Z"/>
        <path class="cls-11" d="M41.82,31.16c2.26,1.55,4.41,3.29,6.31,5.27s3.47,4.14,4.32,6.73c1.63,4.97,2.04,10.47.6,15.54-.68,2.39-1.77,4.68-3.32,6.63s-3.54,3.57-5.57,4.99c-3.92,2.74-8.44,4.41-13.26,4.35-2.76-.04-5.48-.59-8.09-1.45s-4.91-1.95-6.98-3.65c-3.84-3.16-6.38-7.68-7.47-12.5-.8-3.54-.81-7.21.05-10.74.77-3.19,2.14-6.24,4.1-8.89,2.39-3.22,5.7-5.68,9.45-7.08,1.11-.41,2.25-.74,3.4-.99.62-.13,1.24-.24,1.87-.33.72-.1,1.44-.07,2.16-.09,2.85-.05,5.77-.22,8.56.48,1.39.35,2.69.93,3.88,1.73.56.38,1.09-.53.53-.9-2.51-1.69-5.45-2.28-8.44-2.38-1.51-.05-3.01,0-4.52.03-.77.01-1.53,0-2.29.1-.65.09-1.31.2-1.95.34-4.37.93-8.45,3.01-11.57,6.22-2.56,2.63-4.41,5.88-5.57,9.34-1.07,3.2-1.5,6.55-1.21,9.92.45,5.16,2.45,10.2,5.87,14.12,1.69,1.93,3.73,3.56,6.01,4.73,2.61,1.33,5.55,2.21,8.43,2.68,5.08.83,10.17.06,14.72-2.37,2.25-1.2,4.31-2.74,6.23-4.42s3.56-3.75,4.69-6.1c2.35-4.87,2.7-10.5,1.7-15.76-.51-2.71-1.32-5.38-2.86-7.68-1.63-2.43-3.76-4.51-6.01-6.35-1.04-.85-2.11-1.65-3.22-2.41-.56-.38-1.08.52-.53.9Z"/>
        <g>
          <path class="cls-6" d="M62.99,20.05c-1.59-2.14-3.97-4.05-5.6-6.06-2.03-2.51-4.34-5.36-6.33-7.83h27.43c-1.99,2.47-4.3,5.33-6.33,7.83-1.63,2.01-3.82,3.7-5.41,5.84"/>
          <path class="cls-11" d="M63.07,20c-1.65-2.48-3.98-4.41-5.81-6.75-1.95-2.49-3.93-4.94-5.89-7.41l-.32.78c3.1.02,6.19.04,9.29.04,4.92,0,9.83.01,14.75.02,1.13,0,2.26,0,3.39,0l-.37-.9c-1.94,2.41-3.9,4.81-5.85,7.21s-4.2,4.19-5.98,6.56c-.41.55.52,1.09.93.54.88-1.17,1.94-2.2,2.98-3.22s2.03-2.11,2.96-3.25c1.91-2.36,3.82-4.73,5.72-7.09.27-.34.12-.9-.37-.9-3.1,0-6.19,0-9.29.01-4.92,0-9.83,0-14.75.04-1.13,0-2.26.01-3.39.02-.43,0-.57.49-.32.78,1.97,2.42,3.94,4.84,5.95,7.23s4.31,4.13,6.24,6.41c.07.09.22-.03.16-.12h0Z"/>
          <path class="cls-6" d="M51.05,6.16c.67-.89,1.61-1.97,1.97-2.51.64-.95,1.39-1.92,2.26-3h19.29l3.9,5.5"/>
          <path class="cls-11" d="M51.13,6.29c.22-.14.47-.22.67-.39.23-.19.41-.44.61-.66.33-.38.66-.76.97-1.17.76-1.02,1.51-2.04,2.31-3.03l-.4.17c3.33.02,6.66.03,9.99.03h6.42c.61,0,1.21,0,1.82,0,.42,0,.76.04,1.03.4.66.87,1.26,1.78,1.9,2.67.35.49.7.98,1.05,1.47.22.31.5.61.88.73l-.23-.18h0c.28.41.95.02.66-.38.14.2.05.19.03.02,0-.06-.01-.12-.03-.18-.05-.22-.17-.43-.29-.62-.35-.51-.71-1.01-1.07-1.52-.63-.89-1.25-1.79-1.89-2.67-.51-.71-1.19-.96-2.02-.95h-2.16c-4.9,0-9.8,0-14.7.03-.47,0-1.01-.07-1.48.02-.33.06-.49.37-.69.61-.22.28-.44.57-.66.85-.42.55-.83,1.1-1.21,1.68-.29.44-.61.85-.93,1.27-.19.26-.4.51-.57.79-.15.26-.17.53-.25.81-.04.13.11.25.23.18h0Z"/>
          <path class="cls-11" d="M61.53.63c-.52-.09-.99.69-1.26,1.05-.45.61-.85,1.26-1.23,1.91s-.76,1.37-1.12,2.07c-.12.22-.25.4-.18.65.23.82.68,1.64,1.01,2.42l3.76,9.04c.33.8.66,1.6,1,2.4.23.53,1.11.3.88-.24-1.73-4.09-3.49-8.16-5.24-12.25-.25-.57-.49-1.15-.74-1.72v.39c.53-1.04,1.06-2.07,1.66-3.07.29-.47.6-.93.91-1.38.21-.31.72-.8.59-1.21,0-.03-.03-.05-.06-.06h0Z"/>
          <path class="cls-11" d="M67.52.69c-.12.4.33.84.54,1.14.33.48.66.96.96,1.45.6.99,1.13,2.03,1.66,3.07v-.39c-1.74,4.07-3.48,8.13-5.22,12.2-.25.59-.51,1.18-.76,1.77-.23.54.66.78.88.24.88-2.09,1.74-4.18,2.61-6.27,1.04-2.49,2.13-4.96,3.11-7.47.02-.06.06-.12.07-.17.07-.32-.26-.72-.4-.99-.2-.39-.41-.77-.62-1.15-.41-.74-.84-1.47-1.33-2.16-.29-.41-.87-1.43-1.46-1.33-.03,0-.05.03-.06.06h0Z"/>
          <path class="cls-11" d="M64.36,2.01c-.06.3,0,.55,0,.85,0,.33-.02.67-.04.99-.03.66-.05,1.33-.07,1.99-.04,1.33-.04,2.65-.04,3.98l-.02,3.88v1.95c-.01.63-.08,1.3.1,1.92.07.24.43.25.5,0,.17-.59.12-1.21.11-1.82v-1.95c-.02-1.33-.02-2.65-.03-3.98s0-2.59-.04-3.88c-.02-.66-.04-1.33-.07-1.99-.01-.33-.04-.66-.04-.99s.07-.62,0-.95c-.04-.19-.35-.19-.39,0h0Z"/>
        </g>
        <path class="cls-11" d="M60.53,22.56c.4-.16.33-.52.55-.82.19-.27.5-.45.79-.59.64-.31,1.37-.46,2.07-.55.84-.11,1.76-.24,2.61-.08.56.11,1.07.34,1.48.74.31.3.61.99,1.08.98.12,0,.24-.09.27-.21.09-.32-.14-.54-.29-.8-.17-.28-.34-.58-.57-.82-.43-.46-1.1-.72-1.71-.84-1.06-.21-2.18-.06-3.23.1-.87.13-1.79.34-2.54.81-.36.23-.7.53-.89.92-.1.21-.2.46-.18.7.02.25.27.57.56.46h0Z"/>
        <path class="cls-2" d="M16.18,26.5s-5.47,3.51-8.3,7.79c-2.84,4.27-2.94,6.4-1.64,6.46,1.31.05,2.31-3.75,4.57-6.46s6.96-5.76,10.14-7.02c3.18-1.25,2.91-1.88,1.6-2.58-1.31-.69-4.72,1.2-6.37,1.81Z"/>
        <path class="cls-7" d="M3.82,43.41s-1.05,3.74-1.4,7.71c-.35,3.96-.02,5.6,1.18,5.16,1.2-.44.8-4.6,1.05-7.45.25-2.84,1.63-4.22,1.31-5.42-.33-1.2-1.83-1.22-2.14,0Z"/>
        <path class="cls-4" d="M49.4,27.07s-4.93,3.56-6.42,6.05l2.62,2.6s4.73-5.43,7.76-6.78-3.38-2.31-3.96-1.88Z"/>
        <path class="cls-11" d="M93.92,37.27c-1.94-3.6-4.92-6.64-8.03-9.27-3.01-2.54-6.2-5.03-10.1-6-4.32-1.08-8.84-.66-13.24-.58-.24,0-.41.15-.47.32-10.83.86-19.8,8.12-23.82,18.06-.81,1.99-1.4,4.05-1.8,6.14h.86c.2-1.08.47-2.16.79-3.22,1.45-4.69,3.93-9.07,7.43-12.52,4.6-4.54,10.41-6.68,16.61-7.91.09.11.22.18.4.18,3.75.04,7.58-.31,11.31.28,3.55.55,6.41,2.21,9.24,4.35,3.03,2.3,5.93,4.93,8.19,8,2.01,2.7,3.14,5.72,3.89,8.97.14.61.27,1.24.38,1.86h1.06c-.48-3-1.29-6.03-2.71-8.67Z"/>
        <path class="cls-11" d="M91.64,44.3c-1.78-7.01-6.89-11.86-12.69-15.86-2.68-1.75-5.68-2.43-8.84-2.57-3.19-.14-6.51-.17-9.63.47-4.78.98-9.24,3.25-12.67,6.74-3.43,3.5-5.78,8.05-6.83,12.87h1.08c.78-3.43,2.23-6.69,4.32-9.56,2.96-4.08,7.21-7,12.03-8.45,3.11-.93,6.2-1.03,9.42-1.05,3.76-.03,7.37.36,10.6,2.46,4.85,3.35,9.87,7.63,11.69,13.44.32,1.04.6,2.09.82,3.16h1.07c-.11-.55-.24-1.1-.38-1.64Z"/>
        <polygon class="cls-3" points="55.67 2.06 52.81 6.46 61.44 17.23 56.58 6.46 58.87 2.06 55.67 2.06"/>
        <polygon class="cls-3" points="65.51 2.06 67.02 2.06 69.34 6.25 65.51 16 66.48 6.33 65.51 2.06"/>
        <polygon class="cls-12" points="73.19 1.85 76.17 6.46 67.78 16.87 72.76 6.46 70.39 2.06 73.19 1.85"/>
        <path class="cls-1" d="M53.94,25.38s-6.67,3.16-10.78,8.65c-4.11,5.49-.64,3.89,1.19,1.46,1.83-2.44,8.23-7.79,10.88-9.13,2.65-1.34,1.92-2.29-1.29-.98Z"/>
        <path class="cls-13" d="M39.96,39.63s-1.79,4.89-2.19,8.17c-.39,3.28.3,2.96.88,1.68.58-1.27,1.42-5.35,2.33-7.53.91-2.18.18-4.33-1.02-2.33Z"/>
        <g>
          <path class="cls-10" d="M41.6,28.45c.03.07.1.11.15.16.06.05.12.1.18.15.06.06.12.11.19.16s.13.09.2.14c.25.18.46.39.75.56.1.06.24-.04.21-.16-.1-.35-.41-.55-.71-.72-.15-.08-.29-.15-.45-.21-.07-.03-.14-.06-.21-.09-.07-.04-.15-.09-.23-.1-.07-.01-.12.05-.09.12h0Z"/>
          <path class="cls-10" d="M42.78,28.09s.07.04.1.06c.01,0,.02.02.03.03.04.04,0,0,.01.01.01.02.02.05.04.07.01.01.03.03.04.04.03.02.05.05.08.07.06.06.11.12.16.17s.11.11.16.16.11.11.16.16c.06.06.14.11.21.15.12.08.27.18.42.2.1.02.19-.08.13-.18-.07-.13-.19-.25-.29-.35-.06-.07-.12-.14-.2-.19-.06-.04-.12-.09-.18-.13s-.12-.09-.19-.13-.13-.08-.2-.11-.15-.09-.23-.1c-.07,0-.14-.04-.2-.08-.09-.05-.17.09-.08.14h0Z"/>
          <path class="cls-10" d="M15.17,73.94c.17.56.55,1,1.01,1.37.5.4,1.09.66,1.72.74.14.02.28-.13.29-.26.02-.14-.07-.29-.21-.33-.53-.14-.98-.36-1.47-.62-.24-.13-.49-.26-.7-.44-.2-.16-.41-.3-.58-.5-.02-.03-.07,0-.06.03h0Z"/>
          <path class="cls-10" d="M19.07,76.36c.05.1.11.2.19.28.09.1.22.17.34.24.26.16.53.29.81.41.52.21,1.06.34,1.62.3.18-.01.23-.27.04-.32-.23-.07-.45-.15-.67-.23-.27-.1-.54-.18-.81-.26s-.54-.17-.8-.27c-.11-.04-.22-.1-.34-.15-.1-.04-.22-.05-.32-.08-.05-.02-.09.04-.07.09h0Z"/>
          <path class="cls-10" d="M23.75,77.45c.29.37.78.46,1.22.5.24.02.49,0,.73,0,.23,0,.46,0,.67-.07.17-.05.18-.3,0-.35-.21-.06-.41-.04-.62-.02-.23.02-.46.03-.7.04-.22,0-.44.02-.66-.01-.19-.03-.42-.07-.59-.16-.05-.03-.1.04-.06.08h0Z"/>
          <path class="cls-10" d="M29.83,77.84c.16.14.38.15.58.18.25.04.51.07.77.09.53.04,1.06.08,1.6.09s1.05,0,1.57-.06c.47-.06,1.06-.12,1.46-.4.16-.11.11-.37-.1-.37-.47-.02-.97.11-1.45.14-.53.03-1.06.05-1.59.04s-1.03-.02-1.55-.02c-.25,0-.5.01-.75.05-.19.02-.39.03-.54.16-.03.03-.03.09,0,.11h0Z"/>
          <path class="cls-10" d="M40.49,76.24c.35.11.69.15,1.05.04.33-.1.66-.25.94-.44s.57-.41.85-.62.59-.41.86-.65c.15-.13-.01-.34-.18-.31-.67.11-1.19.67-1.73,1.04s-1.14.73-1.8.83c-.06,0-.05.1,0,.11h0Z"/>
          <path class="cls-10" d="M48.25,71.16c.26-.14.52-.22.8-.32s.52-.21.78-.33.5-.26.73-.43c.24-.18.48-.39.61-.66.06-.14-.09-.25-.2-.16-.22.18-.42.38-.66.55s-.47.28-.72.4-.49.22-.71.35-.47.3-.69.47c-.08.06-.01.19.08.14h0Z"/>
          <path class="cls-10" d="M55.61,61.58c.25-.75.73-1.41,1.09-2.12.33-.64.57-1.33.77-2.02.4-1.35.69-2.89.11-4.23-.05-.13-.27-.06-.26.07.14,1.47-.07,2.93-.51,4.34-.22.69-.47,1.37-.76,2.03-.27.63-.54,1.23-.52,1.92,0,.06.08.07.1.01h0Z"/>
          <path class="cls-10" d="M52.8,34.01c0,.1.05.18.09.27.05.1.1.18.17.26.13.17.25.33.37.5s.25.35.39.51c.07.08.13.17.2.25.04.04.09.06.13.09.05.04.08.08.13.13.15.15.37-.04.28-.21-.02-.05-.05-.09-.07-.14s-.02-.11-.05-.15c-.05-.09-.12-.17-.19-.26-.13-.18-.27-.35-.42-.51-.14-.15-.28-.3-.42-.44-.08-.08-.15-.15-.24-.22-.09-.06-.17-.13-.27-.14-.04,0-.09.02-.09.07h0Z"/>
          <path class="cls-10" d="M55.16,37.93c0,.16-.05.28-.02.43s.07.3.13.45c.13.29.28.57.39.86.26.64.44,1.32.75,1.95.05.09.21.05.2-.06-.07-.67-.3-1.32-.56-1.93-.12-.29-.27-.55-.43-.82-.07-.12-.15-.25-.21-.38s-.19-.35-.18-.51c0-.05-.08-.05-.08,0h0Z"/>
          <path class="cls-10" d="M59.54,77.81c.07.05.16.07.24.1.09.04.18.08.27.12.17.07.34.14.52.21s.34.14.52.21c.08.03.17.08.26.1.1.03.2.04.3.06.11.02.2-.14.08-.19-.09-.04-.18-.1-.27-.14-.08-.04-.17-.07-.26-.1-.19-.07-.37-.14-.56-.2s-.37-.13-.56-.17c-.16-.03-.36-.09-.52-.06-.03,0-.03.05,0,.07h0Z"/>
          <path class="cls-10" d="M73.75,78.06c.62-.15,1.28-.1,1.9-.28.35-.1.69-.24,1.01-.39.16-.07.3-.16.45-.25s.33-.19.42-.35c.07-.12-.02-.29-.16-.28-.18,0-.33.11-.49.18-.17.07-.34.15-.51.22-.34.15-.7.27-1.07.37-.32.09-.66.1-.99.19-.27.07-.55.25-.65.53-.02.04.03.08.07.07h0Z"/>
          <path class="cls-10" d="M80.79,74.79c.2,0,.41-.02.6-.09.22-.08.4-.19.59-.32s.35-.26.53-.4c.1-.07.19-.15.29-.22.08-.07.15-.14.22-.22.12-.12,0-.35-.17-.29-.1.03-.2.07-.29.12-.1.06-.19.13-.27.21-.17.14-.33.27-.5.41s-.32.25-.49.37-.33.24-.53.31c-.06.02-.06.12.02.12h0Z"/>
          <path class="cls-10" d="M85.11,71.54c.11-.04.22-.06.33-.09s.23-.09.33-.16c.2-.13.39-.27.58-.42.17-.14.33-.3.48-.46.17-.19.38-.39.44-.64.05-.19-.16-.36-.33-.25-.21.12-.34.34-.5.51-.15.16-.3.31-.46.46s-.31.28-.48.41c-.09.07-.19.15-.26.25s-.13.17-.21.26c-.06.06,0,.17.08.14h0Z"/>
          <path class="cls-10" d="M88.92,67.05c.14-.18.28-.36.43-.53s.27-.38.39-.58.23-.39.35-.58c.06-.09.12-.18.17-.28.06-.1.1-.22.15-.33s-.08-.22-.17-.13c-.08.08-.17.15-.24.24s-.13.2-.19.29c-.12.2-.24.4-.35.61s-.22.4-.31.6c-.09.22-.21.43-.35.62-.05.07.07.14.12.07h0Z"/>
          <path class="cls-10" d="M85.78,30.98c.16.16.31.32.47.47s.33.31.48.48.3.33.44.5c.07.09.13.18.19.27.08.11.14.21.25.29.1.07.27-.02.26-.15-.03-.25-.22-.46-.37-.64s-.32-.36-.5-.51-.37-.29-.56-.43-.39-.24-.6-.35c-.04-.02-.09.03-.05.07h0Z"/>
          <path class="cls-10" d="M81.59,27.44c.1.11.24.15.37.21.14.06.29.13.42.2.29.15.56.34.83.53.52.38,1.01.8,1.55,1.15.16.11.39-.11.28-.28-.09-.13-.19-.26-.3-.38-.06-.07-.1-.15-.16-.21-.06-.06-.12-.11-.19-.16-.28-.24-.57-.48-.88-.68-.29-.19-.6-.36-.92-.49-.28-.12-.67-.3-.96-.15-.1.05-.1.18-.03.25h0Z"/>
          <path class="cls-10" d="M78.27,25.38c.03.07.11.09.17.12.08.04.16.08.24.12.16.08.33.16.49.25.08.04.16.09.24.14s.16.08.24.12c.17.08.33.19.51.25.16.05.24-.15.15-.26-.12-.15-.29-.24-.45-.35-.04-.03-.08-.07-.12-.09-.04-.02-.08-.04-.12-.06-.1-.05-.2-.09-.3-.13-.18-.07-.35-.14-.54-.17-.09-.02-.18-.03-.28-.04-.08,0-.16-.02-.23.04-.02.02-.02.05,0,.07h0Z"/>
          <path class="cls-10" d="M88.45,34.4c.22.38.5.73.76,1.09.13.18.25.36.38.54.13.19.25.39.4.56.1.11.3,0,.25-.15-.07-.21-.19-.4-.32-.59s-.28-.38-.43-.56c-.29-.35-.6-.68-.96-.96-.05-.04-.12,0-.09.07h0Z"/>
          <path class="cls-10" d="M38.58,27.61c.09.26.32.35.55.46.28.14.57.25.84.41s.56.33.84.48c.14.08.28.16.42.24s.31.17.47.21c.12.03.23-.1.16-.21-.17-.27-.47-.46-.72-.65s-.53-.37-.82-.52c-.27-.14-.56-.29-.85-.37-.25-.07-.52-.11-.77-.17-.07-.02-.15.05-.12.12h0Z"/>
        </g>
      </g>
    </g>
  </g>
</svg>